<?xml version="1.0" encoding="UTF-8"?>
<svg id="Text" xmlns="http://www.w3.org/2000/svg" version="1.1" viewBox="0 0 3904 5000">
  <defs>
    <style>
      .cls-1 {
        fill: #8c633f;
      }

      .cls-1, .cls-2, .cls-3, .cls-4, .cls-5, .cls-6, .cls-7, .cls-8, .cls-9, .cls-10, .cls-11, .cls-12, .cls-13, .cls-14, .cls-15, .cls-16, .cls-17, .cls-18, .cls-19, .cls-20, .cls-21, .cls-22, .cls-23, .cls-24, .cls-25, .cls-26, .cls-27 {
        stroke-width: 0px;
      }

      .cls-2 {
        fill: #f7aeaa;
      }

      .cls-3 {
        fill: #c87239;
      }

      .cls-4 {
        fill: #ffe57a;
      }

      .cls-5 {
        fill: #be8952;
      }

      .cls-6 {
        fill: #b6554b;
      }

      .cls-28 {
        fill: #050505;
      }

      .cls-28, .cls-29 {
        font-family: Kefa-Bold, Kefa;
        font-size: 1097.76px;
        font-weight: 700;
        letter-spacing: -.06em;
      }

      .cls-7, .cls-29 {
        fill: #10121a;
      }

      .cls-8 {
        fill: #bcc4db;
      }

      .cls-9 {
        fill: #a385d4;
      }

      .cls-10 {
        fill: #a7413c;
      }

      .cls-11 {
        fill: #df756a;
      }

      .cls-12 {
        fill: #47316b;
      }

      .cls-13 {
        fill: #babcc4;
      }

      .cls-14 {
        fill: #cacfdd;
      }

      .cls-15 {
        fill: #88d267;
      }

      .cls-16 {
        fill: #614889;
      }

      .cls-17 {
        fill: #5f4091;
      }

      .cls-18 {
        fill: #e9c387;
      }

      .cls-19 {
        fill: #8268ab;
      }

      .cls-20 {
        fill: #e39147;
      }

      .cls-21 {
        fill: #ecb380;
      }

      .cls-22 {
        fill: #cb5d57;
      }

      .cls-23 {
        fill: #fce3bb;
      }

      .cls-24 {
        fill: #c7a063;
      }

      .cls-25 {
        fill: #fff;
      }

      .cls-26 {
        fill: #efc59a;
      }

      .cls-27 {
        fill: #5ca353;
      }
    </style>
  </defs>
  <circle class="cls-4" cx="1959" cy="1915.56" r="1756.78"/>
  <g>
    <path class="cls-25" d="M562.06,1355.5c-62.53,12.81-137.45-25.92-163.52-41-.05-.02-.1-.06-.15-.09-5.18-3.01-8.4-5.06-9.15-5.55-.04-.02-.08-.05-.12-.07-.02-.01-.04-.02-.06-.04,0,0-2.34,33.82,58.37,66.64,21.03,11.36,49.63,22.62,88.53,32.31,7.89,16.39,4.25,66.16-30.35,83.77-34.6,17.6-108.66-3.64-222.17-67.38,20.4,37.33,45.43,64.66,89.95,85.07,25.7,11.79,57.9,21.27,99.44,29.05-14.57,72.84-139.01,43.71-209.42-19.42-54.01-48.43-65.89-86.14-59.71-116.69,1.87-9.28,5.4-17.89,9.93-25.96-4.61-20.65-4.27-39.1-.36-55.24,9.97-41.26,43.24-67.49,76.85-77.09-2.25-9.48-2.95-18.59-2.38-27.17,3.4-51.91,53.33-85.14,93.43-70.56,39.95,14.53,130.48,62.78,173.74,104.54,7.34,7.08,13.33,13.99,17.47,20.51,28.53,44.92,4.25,79.52-10.32,84.38Z"/>
    <path class="cls-25" d="M694.99,1332.43c-1.3,8.55-3.27,16.8-5.79,24.68-18.57,58.15-67.33,95.98-103.58,81.55.11-30.96,3.14-47.91,28.64-86.78,25.49-38.87,3.64-89.86,3.64-89.86,0,0,26.72-.36,48.88,11.28,18.08,9.49,33.12,26.98,28.21,59.14Z"/>
    <path class="cls-5" d="M876.49,1638.37c-185.14,19.42-379.99-86.8-379.99-86.8,0,0-1.21-3.04,0-7.28,13.35.61,54.02-12.14,70.41-75.88,26.33,34.31,60.39,25.88,84.76,12.35,18.32-10.19,31.18-23.27,31.18-23.27,27.78,57.16,100.12,89.5,145.72,104.8,23.16,7.77,39.42,11.14,39.42,11.14l8.5,64.95Z"/>
    <path class="cls-5" d="M2359.79,1697.96h0c4.9-41.4,8.22-64.93,8.22-64.93,0,0-704.83-.49-1475.95-332.56,0,0,39.21,401.76,137.55,922.56,72.83,387.86,233.08,600.92,233.08,600.92,0,0,465.56,395.01,1089.5,140.33.01-.01.02-.01.02-.01h.02c10.08-4.12,20.18-8.4,30.34-12.86-112.38-387.25-47.44-1045.56-22.79-1253.45ZM1787.01,1717.28c21.37-55.38,117.46-49.47,169.66-11.84,52.2,37.64,79.52,90.14,79.82,111.99.3,21.85-2.73,33.99-14.57,23.67-22.85-19.92-101.37-30.96-149.33-34.3-47.95-3.34-117.76-6.17-85.59-89.53ZM1149.04,1744.39c-3.24-18.21,72.84-148.31,207.6-127.27,134.76,21.04,94.9,99.15,56.45,125.05-21.72,14.63-137.19-22.67-199.71,5.46-44.52,23.07-61.1,14.97-64.34-3.24ZM1225.12,2288.69c-23.48-48.97,13.35-54.63,34.79-49.37-90.24-112.5-118.56-419.24,74.87-436.24,84.17,1.61,190.2,127.87,181.29,312.41-8.9,184.53-105.62,205.98-135.56,196.67,21.79,24.97,24.57,37.51,24.67,38.02-1.06-.9-69.25-58.69-180.07-61.49ZM1975.8,2531.29c-3.61,3.38-9.34,3.05-15.1,1.29-9.79-2.95-19.7-9.99-19.7-9.99,0,0-64.74,309.99-215.28,330.22-150.54,20.24-208.81-223.38-219.34-344.79-82.55-12.94-128.69-58.27-103.59-87.41,76.08,126.26,480.76,25.09,480.76,25.09,0,0-19.42-11.53-46.13-16.39,23.67-21.25,60.09-12.75,106.83,13.35,22.91,12.8,33.28,32.14,36.75,49.62v.02c3.62,18.19-.23,34.34-5.18,38.98ZM2074.13,2324.3c-.76-.02-1.53-.04-2.28-.05-166.31-3.34-238.1,68.85-238.1,68.85,0,0-10.11-11.34,4.46-27.52-184.53-209.63-56.66-415.2,4.65-463.37,61.31-48.17,182.1-38.63,220.95,115.55,27.09,107.51,6.86,188.18-7.88,227.15-6.4,16.91-11.75,25.98-11.75,25.98,0,0,45.73,21.85,29.95,53.42Z"/>
    <path class="cls-5" d="M2925.17,1358.74c-153.5,159.26-242.81,247.75-286.31,304.22-11.55,14.99-19.86,27.73-25.3,38.93-64.87-58.86-100.32-77.04-141.74-79.29-14.4-.78-29.51.36-46.84,2.4,0,0,53.42-92.27,82.55-117.36,29.14-25.08,328.6-130.3,417.63-148.91Z"/>
    <path class="cls-5" d="M2500.26,2257.13c-12.95,224.18-5.67,297.84-5.67,297.84,0,0-68.79,242.81-67.17,358.54-53.68-232.41-66.72-536.36-53.87-827.61,6.53-147.91,19.74-292.52,37.68-422.85,0,0,20.49-17.65,51.38-22.5,34.9-5.48,83.09,5.43,129.91,76.73-50.18,157.82-79.31,315.65-92.27,539.84Z"/>
    <path class="cls-5" d="M2930.03,1384.64l-53.15,301.54h0s-5.79,32.82-5.79,32.82l-2.37,13.46-8.78,3.84-282.59,123.64s16.63-90.23,63.74-172.39c18.53-32.32,63.43-82.51,112.55-132.91.04-.02.05-.04.05-.04,75.78-77.73,161.61-155.97,176.34-169.95Z"/>
    <path class="cls-5" d="M2987.69,1833.22c-265.87,46.13-424.3,95.91-424.3,95.91l7.89-34.6s68.65-30.53,167-72.23c0,0,.04-.01.1-.05,75.37-31.94,168.17-70.45,260.85-106.79,0,0-13.44,23.86-18.13,55.13-2.9,19.35-2.45,41.52,6.59,62.63Z"/>
    <path class="cls-1" d="M2854.76,1891.5l-291.37,74.66s-44.92,407.91-15.78,566.95c233.09,115.33,316.86,115.33,316.86,115.33,0,0-40.06-456.48-9.71-756.95Z"/>
    <path class="cls-1" d="M2838.37,2668.48c-1.82,1.82-64.95,52.81-329,106.23-3.64,10.32-28.62,44.92-28.62,44.92,0,0,45.61-182.71,64.43-245.23,149.93,66.16,293.19,94.09,293.19,94.09Z"/>
    <path class="cls-25" d="M3052.81,1728.01c-20.83,50.33-24.92,92.64-19.59,111.28,0,0-44.92,4.86-14.57-82.55.8-2.31,1.59-4.54,2.38-6.73,29.11-80.65,50.14-80.08,61.96-80.08-12.58,19.92-22.52,39.55-30.18,58.08Z"/>
    <path class="cls-25" d="M3661.77,1845.33h-.01c-24.95,8.61-57.29,11.95-94.37,5.5-97.73-17-146.9-73.45-146.9-73.45,0,0,3.64-26.71-20.03-32.17,0,5.55-.15,10.99-.44,16.33-.01.01-.01.02,0,.04-2.71,49.37-18.09,89.94-49.88,126.54,0,0-.01,0-.02.01-14.75,17-33.06,33.13-55.27,48.9,15.78,9.71,34.6-1.21,34.6-1.21,0,0,9.71,40.06,34.6,67.38,49.78,72.84,167.54,130.51,87.41,141.43-6.56.9-12.86,1.36-18.93,1.38h-.01c-68.12.44-107.39-52.08-155.88-137.36-10.4-13.84-20.87-25.82-31.27-36.31-5.6-5.63-11.17-10.83-16.71-15.65-67.71-59.03-129.74-61.76-149.91-111.93-7.2-17.92-6.68-41.33-2.29-65.55,10.76-59.48,44.79-123.84,44.79-123.84,12.75-35.21,72.23-52.81,154.18-107.44,81.95-54.63,89.23-137.19,103.19-135.36,9.76,1.27,28.12,6.09,35.79,23.81,3.31,7.64,4.65,17.66,2.45,30.82-17,92.87-104.41,94.69-105.62,152.36-1.21,57.67,21.25,69.81-56.45,95.3,0,0,.01,0,.04.01,54,31.52,92.84-44.93,92.84-44.93,0,0,86.8,50.38,185.14,68.59,98.34,18.21,163.29,5.46,180.28,41.88,10.55,22.61-10.47,50.82-51.31,64.91Z"/>
    <path class="cls-5" d="M2732.54,3413.69c-110.12-45.83-190.66-119.3-248.21-191.48-63.42-79.52-98.93-157.44-115.36-194.99,30.58-7.68,54.8-20.24,54.8-20.24l27.11-28.32c113.15,259.54,281.66,375.95,281.66,375.95,0,0,5.28,13.08,7.41,27.26,1.87,12.46,1.3,25.76-7.41,31.82Z"/>
    <path class="cls-25" d="M2818.94,3452.14c-4.36,4.02-8.53,7.3-12.54,9.94-39.49,26.09-61.51-9.94-61.51-9.94,0,0,27.92-6.07,36.42-38.45,2.08-11.73,1.99-22.56.57-32.35-5.23-36-28.49-57.88-28.49-57.88,44.31-55.24,112.91,84.98,65.56,128.69Z"/>
    <path class="cls-25" d="M2875.62,3685.23c-12.32-2-23.86-5.22-34.58-9.63-60.93-24.98-95.74-87.97-100.23-180.37,46.32,27.92,140.04-2.43,134.58-108.05-.92-17.74-4.42-32.41-9.6-44.58-25.74-60.29-92.98-58.61-92.98-58.61,106.23-111.08,160.86-38.24,154.79,47.95-6.07,86.2,20.03,153.58,50.38,250.09,30.35,96.52-20.03,116.55-102.36,103.19Z"/>
    <path class="cls-25" d="M3060.38,3642.45c-6.53,29.88-25.46,54.52-59.33,62.81,23.2-16.71,34.7-39.44,22.82-100.22-3.65-18.72-9.53-41.05-17.97-67.93-.3-.96-.61-1.92-.9-2.86-7.1-22.61-13.1-41.63-18.08-58.25-19.59-65.48-23.31-93.95-15.62-159.23,9.71-82.55-44.31-93.48-44.31-93.48,69.81,4.25,81.95,33.39,78.31,120.19-2.22,52.81,9.72,104.94,23.65,150.12,8.6,27.89,17.96,53.13,25.2,74.23.32.9.62,1.8.92,2.68,8.1,23.78,10.23,49.36,5.31,71.94Z"/>
    <path class="cls-5" d="M1576.99,3066.68s-210.63,1.21-282.87,41.88c-72.23,40.67-100.16,88.62-100.16,88.62,0,0-6.88-11.63-18.27-23.16-6.82-6.91-15.27-13.79-24.83-18.11,78.57-81.63,110.89-110.79,234.85-123.92,23.52-2.49,50.33-4.41,81.4-5.99l109.87,40.67Z"/>
    <path class="cls-25" d="M1179.39,3297.14s-52.81-38.96-89.57-74.14c-13.51-12.92-24.85-25.34-30.62-35.12,42.09-7.68,49.78-10.93,87.81,21.45,2.86,2.44,5.6,4.81,8.19,7.11,31.95,28.4,43.64,48.14,24.18,80.7Z"/>
    <path class="cls-25" d="M1198.82,3451.73s-12.95-22.67-84.17-50.99c-71.23-28.34-97.12-68.8-213.67-214.48-.38-.46-.74-.92-1.1-1.38-.01-.01-.02-.01-.02-.01-112.5-139.99-170.35-114.36-173.55-112.8,50.95-28.25,106.74-27.41,160.11,10.6,32.8,23.36,73.86,81.23,124.46,135.9,31.8,34.35,67.35,67.43,107,89.91,102.79,58.27,80.94,143.26,80.94,143.26Z"/>
    <path class="cls-25" d="M1180.2,3533.48c-24.28-29.95-59.09-49.37-116.55-67.99-30.33-9.82-68.99-50.52-111.11-99.61-16.29-18.99-33.09-39.23-50.15-59.43-22.4-26.55-45.21-53.03-67.79-76.48-12.91-13.4-24.58-25.36-35.28-36-59.06-58.67-88.53-76.81-133.07-74.08,0,0,52.62-33.18,114.93,8.1,42.86,28.38,74.61,53.33,107.65,92.21,14.99,17.65,30.25,38.17,46.93,63.19,6.8,10.2,13.44,19.8,20.01,28.85,16.61,22.85,32.75,42.21,49.86,58.95,29.31,28.71,61.41,49.75,103.34,67.6,76.08,32.38,90.65,74.46,71.23,94.69Z"/>
    <path class="cls-25" d="M658.17,3203.26c-23.68-42.78,10.52-84.98,97.93,4.86,87.41,89.84,194.25,244.43,278.42,288.13,84.17,43.71,123.83,60.7,120.59,80.94-29.14,27.52-141.64-11.33-263.04-110.07-121.4-98.74-208.81-218.53-233.9-263.85Z"/>
    <path class="cls-25" d="M2052.68,2050.74s-36.42-59.09-130.3-47.76c-17.87,2.16-34.19,11.86-48.32,26.9-60.11,63.96-80.68,224.56-13.2,313.03-12.94,10.53-14.36,13.56-14.36,13.56,0,0-124.84-134.96-52.81-337.29,23.52-54,59.68-91.83,97.15-108.07,32.18-13.95,65.32-11.99,92.24,9.32,58.27,46.13,69.6,130.31,69.6,130.31Z"/>
    <path class="cls-25" d="M1475,1953.99c-.67-.86-22.97-29.09-82.34-27.9-32.23.64-61.58,24.6-83.05,61.09-18.71,31.78-31.44,73.07-34.92,116.77-7.39,93.15,63.88,176.61,64.94,177.84-.51-.42-16.2-13.54-41.67-25.48-79.73-143.26-94.06-216.21-57.87-348.43,11.39-41.59,41-65.13,76.08-70.47,56.57-8.62,127.35,30.06,158.82,116.58Z"/>
    <path class="cls-11" d="M1886.56,2582.28s-34.76,134.33-102.22,199.38c-5.18,5-10.57,9.59-16.15,13.68-78.06,57.27-110.48,5.46-110.48,5.46,0,0,8.26-91.6,72.04-156.19,34.04-34.49,83.91-61.28,156.8-62.34Z"/>
    <path class="cls-5" d="M954.19,1260.2s75.27-36.42,121.4-49.17c1.82,70.41,12.75,99.55,12.75,99.55,0,0-70.41-23.07-134.15-50.38Z"/>
    <path class="cls-20" d="M1383.35,1404.06l-269.52-83.77s-1.92-24.24-1.32-61.7c1.13-71.96,11.53-192.65,62.63-283.7,77.7-138.4,171.18-219.13,267.69-177.86,2.14.91,4.19,1.95,6.17,3.13,87.57,51.81,25.76,353.39-65.65,603.88Z"/>
    <path class="cls-15" d="M1374.85,745.75s-13.05-2.73-20.94,1.52c-2.15-17.92,2-33.88,9.64-46.41,12.81-21.01,35.39-32.35,54.4-27.04,1,.28,1.89.57,2.7.89,23.82,9.15-32.29,32.29-45.79,71.05Z"/>
    <path class="cls-15" d="M1633.83,706.18c-2.46,31.26-88.59,57.97-175.21,65.38-11.23-11.23-41.88-18.21-41.88-18.21,17.96-16.06,37.37-29.53,56.96-40.4,70.72-39.26,143.66-44.77,157.92-16.96,1.76,3.44,2.46,6.85,2.21,10.2Z"/>
    <path class="cls-15" d="M2048.48,609.78h0c-11.19,4.77-24.17,9.86-39.09,15.27-74.47,4.05-117.76,31.56-117.76,31.56,0,0-2.03,9.71,40.06,8.1,129.49-17,94.69,4.04,30.75,16.18-21.1-2.62-38.63-.86-52.69,2.68-29.38,7.45-43.62,22.81-43.62,22.81,0,0,86.2,2.03,83.77,10.93-.51,1.87-5.43,4.26-12.89,6.88h-.01c-28.2,9.92-92.72,23.07-92.72,23.07l-86.2-19.02-84.96,38.04c1.49-1.15,82.28-63.2,122.2-99.87t.02-.01c7.76-7.13,13.97-13.29,17.76-17.87-4.99,1.65-10.56,3.81-16.61,6.45-67.95,29.51-197.16,118.59-269.9,223.1.91-48.86-40.06-83.46-40.06-83.46,0,0,127.87-8.5,160.65-52.2,32.78-43.71-4.86-69.2-4.86-69.2,0,0,27.95-51.67,71.92-84.53,5.09-3.81,10.4-7.37,15.9-10.56,53-30.76,43.71-21.85,23.07,8.09-35.62,36.02-29.55,61.92-29.55,61.92,0,0,25.91-19.01,98.75-68.79,72.84-49.78,151.34-81.34,150.13-72.84s-12.14,15.78-59.49,51.79c-45.72,12.55-82.55,36.02-78.91,62.73,84.18-40.88,251.72-75.67,268.3-62.73,13.89,10.84,3.4,27.06-53.98,51.5Z"/>
    <path class="cls-25" d="M2023.14,828.21l-59.89,57.06s-143.94-42.58-238.4-67.18c-25.97-6.76-48.2-12.18-62.68-14.97l96.31-37.23s130.34,22.46,217.47,46.96c18.13,5.1,34.37,10.28,47.19,15.37Z"/>
    <path class="cls-25" d="M1934.12,912.38l-59.49,62.73-221.77-58.27-84.98,233.49s-54.63,41.68-74.46,62.32c14.24-46.33,31.41-100.56,48.73-153.65,0,0,.01-.01.02-.05,34.87-106.88,70.32-209.18,83.57-233.37l295,83.04,13.37,3.76Z"/>
    <path class="cls-8" d="M1856.82,991.69s-50.99,44.52-122.62,167.14c-17.81-26.71-60.7-55.03-148.11-18.21,6.92-20.17,19.58-54.58,32.6-89.51.01-.04.02-.06.04-.09.01-.02.02-.04.02-.06,0,0,.01-.02.02-.06,21.22-56.89,43.4-115.05,43.4-115.05l169.07,48.5,25.58,7.34Z"/>
    <path class="cls-22" d="M1902.35,1532.75s-246.45-38.24-471.04-115.33c-2.79-35.19,6.31-68.79,22.61-99.42,50.84-95.65,171.64-162.33,218.08-157.96,61.31,5.77,85.88,87.26,129.6,125.96,60.7,53.72,137.79,32.48,156,102.28,18.21,69.81-55.24,144.47-55.24,144.47Z"/>
    <path class="cls-15" d="M1930.57,1255.04c-60.09.61-106.53,15.18-106.53,15.18,0,0-4.86-1.52-6.98-7.89,0,0,14.53-18.68,43.61-32.04,13.97-6.41,31.31-11.59,52-12.88,24.55-1.52,41.75,3.62,50.2,10.55,13.5,11.07,4.66,26.71-32.29,27.09Z"/>
    <path class="cls-15" d="M1806.74,1249.88s30.05-36.42,25.8-58.27c-4.25-21.85-28.23-14.26-24.58,9.11,3.64,23.37-7.59,40.97-7.59,40.97l6.37,8.19Z"/>
    <path class="cls-16" d="M2224.67,945.16c-51.9,58.27-150.71,182.4-232.49,413.58-30.14-37.23-39.46-43.3-66.57-49.37-27.12-6.07-57.06-17.4-57.06-17.4,0,0,20.37-6.12,45.32-8.5,25.83-2.48,58.22-4.55,68.93-22.05,21.04-34.41,3.1-64.56-62.46-66.99-36.31-3.98-64.76,11.3-65.55,11.73.17-.68,13.9-53.43-25.09-57.05-39.26-3.64-44.12,42.09-40.48,55.85,3.64,13.75-3.23,17.81-3.23,17.81,0,0-23.88-30.35-26.31-37.84,0,0,8.8-15.42,25.43-40.61,45.26-68.56,148.44-209.43,289.61-308.43,72.84-17,91.66-13.96,81.95,0-9.71,13.96-32.78,23.98-23.37,57.67.06.21.12.41.18.62,9.68,32.97,45.7,25.36,53.54,6.36,7.89-19.12,26.1-37.33,31.26-28.23,5.16,9.11-15.78,47.35,6.37,72.84Z"/>
    <path class="cls-15" d="M2284.16,874.74c-14.17,20.24-46.13,51.8-46.13,51.8,0,0-3.24-4.05,0-31.16,3.24-27.11-.81-53.02-28.32-47.14-27.52,5.86-30.35,42.28-48.56,42.28s-9.31-33.59,13.35-39.25c20.82-5.21,23.46-38.45-12.65-47.55-3.18-.81-6.67-1.43-10.47-1.82-46.9-4.86-75.22,10.53-93.43,8.5-18.21-2.03,152.15-78.1,208.4-40.46,8,5.35,13.6,15.96,17.12,29.02,6.17,22.93,5.85,53.34.69,75.79Z"/>
    <path class="cls-15" d="M2415.68,744.44s-95.5,22.65-114.12,24.28c-11.33-17.41-19.42-19.84-19.42-19.84,0,0,1.19-.61,3.36-1.68,16.69-8.28,91.5-44.37,130.18-46.89-.41,9.92-.62,17.64-.68,23.66-.21,17.34.68,20.46.68,20.46Z"/>
    <path class="cls-18" d="M2565,985.62c-37.22,145.68-114.52,386.88-126.66,520.02-31.16,28.72-55.76,77.29-55.76,77.29l-36.11-1.88s106.09-318.62,154.86-513.81c0,0,0-.01.01-.04.01-.06.05-.22.11-.47,10.95-43.89,18.99-81.51,22.27-107.81,8.97-72.16,2.12-109.2-6.88-128.2-.01-.02-.01-.04-.01-.04-8.86-18.68-19.81-19.87-19.81-19.87,0,0,6.33,1.58,12.48,13.45,0,0,0,.01.01.04,7.76,14.99,15.22,46.35,9.36,111.56-10.51,116.96-162.68,529.32-199.1,645.06-116.95,2.83-363-40.88-363-40.88,0,0,5.35-15.05,13.23-35.7,10.9-28.52,26.64-67.69,39.78-92.58,37.88,28.59,89.61,53.2,137.39,57.25,31.37,2.66,61.03-3.53,83.96-23.26-5.39.02-10.65-.02-15.78-.15h-.01c-146.56-3.54-193.02-66.63-193.02-66.63,0,0,22.67-64.34,56.66-118.16,43.11,34.48,98.43,56.88,143.91,59.06,27.11,1.3,50.7-4.59,66.12-19.4-142.04,1.21-197.49-68.8-197.49-68.8,0,0,30.76-72.03,75.68-133.94,24.22,17.96,79.96,47.54,131.43,50.61,21.62,1.3,42.5-2.09,59.97-12.98-120.19-9.71-174.41-67.99-174.41-67.99,0,0,33.99-63.94,79.71-108.86,111.29,85.95,151.75,34.39,151.75,34.39,0,0-89.43-5.66-127.62-63.93,102.65-127.89,211.91-175.76,267.23-148.93,3.95,1.92,7.76,4.58,11.27,8.19,0,0,0,.01.01.02,20.16,20.82,30.14,73.27-1.57,197.35Z"/>
    <path class="cls-15" d="M2988.47,955.8c-5.11,4.03-11.5,8.45-19.19,13.23-51.39,31.97-182.51,56.65-182.51,56.65,0,0-3.24-3.64-4.46-8.5,12.93-15.75,39.24-35.13,69.39-51.95,34.93-19.47,75.02-35.47,105.43-38.29,48.17-4.47,60.36,5.97,31.33,28.86Z"/>
    <path class="cls-15" d="M2821.13,898.71c-9.34,29.62-41,76.87-49.74,88.54l-3.64-9.31s.44-20.78,4.88-43.75c5.23-26.89,15.98-56.79,38.02-59.84,14.1-1.95,15.38,8.75,10.48,24.37Z"/>
    <path class="cls-19" d="M2853.21,1240.87c-.64,13.93-5.12,27.83-12.21,38.96-23.48,36.82-66.37,50.99-66.37,50.99,0,0,12.95,7.68,13.76,14.16-63.53,17-68.39,17.81-68.39,17.81,0,0,6.47-16.6-8.1-30.75-12.54,30.75-33.99,48.96-33.99,48.96l-196.67,72.03,63.54-257.38s19.83-9.3,38.04-1.21c-4.86-18.21-14.17-23.87-14.17-23.87,0,0-7.95-29.37,5.35-60.05,4.7-10.85,12.07-21.88,23.38-31.82,26.05-22.88,56.5-18.38,76.71-7.44,13.38,7.22,22.28,17.28,22.44,24.04,2.83-50.19-55.04-66.77-55.04-66.77,0,0,5.17-8.5,14.47-18.53,16.75-18.06,46.89-41.08,84.28-28.42,0,0-3.24,19.42,8.9,27.92.7,1.04,1.37,2.05,2.02,3.05,10.22,16,10.94,25.69,10.94,25.69,0,0-34.81,23.87-38.05,49.78-3.04,24.37,1.78,45.14,2.37,47.52-.87-2.5-10.59-24.81-75.61-3.01-68.8,23.07-50.59,110.48-50.59,110.48,0,0-105.62,37.23-33.58,117.36-13.35-58.27-1.63-76.08,44.11-89.84,45.73-13.76,74.87,19.83,75.27,33.18,10.93-10.93-1.61-44.51-1.61-44.51,0,0,12.03-47.1,52.97-69.62,12.15-6.68,26.85-11.21,44.55-11.68,23.46-.63,40.28,5.12,51.68,14.46,6.11,5.01,10.66,11.05,13.83,17.69,4.54,9.46,6.29,20.15,5.79,30.84Z"/>
    <path class="cls-19" d="M2828.05,1159.64c-36.42-20.64-81.74-9.31-81.74-9.31,0,0-17.62-28.97-.87-61.1.28-.53.57-1.08.87-1.63,18.21-32.78,105.62-50.18,124.63-26.3,5.8,7.28,10.78,17.63,12.84,28.98,4.7,25.86-5.69,56.99-55.74,69.36Z"/>
    <path class="cls-19" d="M2580.08,1043.49l14.87-50.99s36.72-6.68,47.04-1.82c-23.37,20.94-25.78,36.42-25.78,36.42,0,0-20.35-1.82-36.13,16.39Z"/>
    <path class="cls-25" d="M3568.92,2018.36c-4.46.32-8.9.45-13.27.4-66.77-.8-115.73-12.94-193.43-101.98,12.92-9.4,22.42-24.09,28.8-36.74,6.81-13.54,10.05-24.77,10.05-24.77,0,0,54.23,56.65,180.49,88.21,118,29.5,51.12,70.32-12.64,74.87Z"/>
    <ellipse class="cls-25" cx="1989.45" cy="2077.55" rx="26.41" ry="30.65"/>
    <path class="cls-25" d="M1478.86,2014.72c0,17.43-11.87,31.56-26.51,31.56s-26.5-14.13-26.5-31.56,11.87-31.56,26.5-31.56,26.51,14.13,26.51,31.56Z"/>
  </g>
  <g>
    <path class="cls-27" d="M1353.91,747.27c-2.15-17.92,2-33.88,9.64-46.41,6.7.02,15.31-1.23,26.36-4.58,23.71-7.2,30.11-15.36,30.74-21.57,23.82,9.15-32.29,32.29-45.79,71.05,0,0-13.05-2.73-20.94,1.52Z"/>
    <path class="cls-3" d="M1383.35,1404.06l-269.52-83.77s-1.92-24.24-1.32-61.7c22.18,42.28,43.96,47.1,131.22,30.74,87.41-16.39,90.45-75.08,90.45-75.08,0,0-38.24-14.16-27.32-36.37,23.07,3.29,65.56-20.88,83.04-77.33-20.76,1.21-44.19-12.75-47.83-38.85,58.88-8.5,78.91-41.28,88.73-110.48-30.46,13.78-43.49-14.65-43.8-15.37.66.16,24.54,5.84,43.8-24.69,19.53-30.96,18.2-110.99,18.2-110.99,87.57,51.81,25.76,353.39-65.65,603.88Z"/>
    <path class="cls-27" d="M1416.73,753.34c17.96-16.06,37.37-29.53,56.96-40.4,10.05,6.9,25.41,13.32,48.66,15.52,57.67,5.46,111.46-22.28,111.46-22.28h.01c-2.46,31.26-88.59,57.97-175.21,65.38-11.23-11.23-41.88-18.21-41.88-18.21Z"/>
    <path class="cls-27" d="M1834.15,621.01c-24.24,15.1-33.98,26.41-37.65,33.97-67.95,29.51-197.16,118.59-269.9,223.1.91-48.86-40.06-83.46-40.06-83.46,0,0,127.87-8.5,160.65-52.2,32.78-43.71-4.86-69.2-4.86-69.2,0,0,27.95-51.67,71.92-84.53-16.6,32.43-37.81,79.01-21.94,77.75,24.28-1.93,43.71-6.57,112.3-58.16,68.59-51.6,108.45-49.98,108.45-49.98-45.72,12.55-82.55,36.02-78.91,62.73Z"/>
    <path class="cls-10" d="M1957.59,1388.28c18.21,69.81-55.24,144.47-55.24,144.47,0,0-246.45-38.24-471.04-115.33-2.79-35.19,6.31-68.79,22.61-99.42,8.6,3.48,22.17,1.89,43.56-12.67,54.79-37.32,131.12-69.61,190.2-35.11,59.08,34.5,120.59,108.75,180.48,103.9,59.9-4.86,89.44,14.17,89.44,14.17Z"/>
    <path class="cls-27" d="M2048.48,609.78h0c-11.19,4.77-24.17,9.86-39.09,15.27-74.47,4.05-117.76,31.56-117.76,31.56,0,0-50.59,9.71-50.59,21.99s65.35,5.33,68.71,4.98c-29.38,7.45-43.62,22.81-43.62,22.81,0,0-45.73,9.71-17,18.68,28.72,8.96,61.09-.47,87.86-.87-28.2,9.92-92.72,23.07-92.72,23.07l-86.2-19.02-84.96,38.04c1.49-1.15,82.28-63.2,122.2-99.87t.02-.01c1.87-1.14,62.49-37.96,164.66-66.64,65.3-18.33,83.76-3.51,88.47,10.02Z"/>
    <path class="cls-25" d="M1662.17,935.85l169.07,48.5c-48.39,10.17-88.42-5.49-125.57-17.34-41.28-13.16-85.61,81.13-86.9,83.89,21.22-56.89,43.4-115.05,43.4-115.05Z"/>
    <path class="cls-8" d="M1920.75,908.62l13.37,3.76-59.49,62.73-221.77-58.27-84.98,233.49s-54.63,41.68-74.46,62.32c14.24-46.33,31.41-100.56,48.73-153.65,0,0,.01-.01.02-.05,1.44-3.33,76.14-175.16,82.15-180.87,6.07-5.77,91.36,24.28,176.64,42.49,65,13.88,104.61-3.1,119.78-11.96Z"/>
    <path class="cls-8" d="M2023.14,828.21l-59.89,57.06s-143.94-42.58-238.4-67.18c23.12-11.39,110.65,8.17,165.96,9.31,36.88.76,67.51-7.98,85.14-14.56,18.13,5.1,34.37,10.28,47.19,15.37Z"/>
    <path class="cls-27" d="M1930.57,1255.04c-60.09.61-106.53,15.18-106.53,15.18,0,0-4.86-1.52-6.98-7.89,0,0,14.53-18.68,43.61-32.04,16.45,4.33,43.47,9.12,73.45,5.03,13.74-1.88,22.98-4.47,28.75-7.36,13.5,11.07,4.66,26.71-32.29,27.09Z"/>
    <path class="cls-12" d="M2224.67,945.16c-51.9,58.27-150.71,182.4-232.49,413.58-30.14-37.23-39.46-43.3-66.57-49.37-27.12-6.07-57.06-17.4-57.06-17.4,0,0,20.37-6.12,45.32-8.5,25.83-2.48,58.22-4.55,68.93-22.05,21.04-34.41,3.1-64.56-62.46-66.99-36.31-3.98-64.76,11.3-65.55,11.73.17-.68,13.9-53.43-25.09-57.05-39.26-3.64-44.12,42.09-40.48,55.85,3.64,13.75-3.23,17.81-3.23,17.81,0,0-23.88-30.35-26.31-37.84,0,0,8.8-15.42,25.43-40.61,33.16-14.75,110.4-51.94,190.06-110.54,83.26-61.25,138.61-118.22,158.31-139.6,9.68,32.97,45.7,25.36,53.54,6.36,7.89-19.12,26.1-37.33,31.26-28.23,5.16,9.11-15.78,47.35,6.37,72.84Z"/>
    <path class="cls-27" d="M2283.47,798.95c6.17,22.93,5.85,53.34.69,75.79-14.17,20.24-46.13,51.8-46.13,51.8,0,0-3.24-4.05,0-31.16,3.24-27.11-.81-53.02-28.32-47.14-27.52,5.86-30.35,42.28-48.56,42.28s-9.31-33.59,13.35-39.25c20.82-5.21,23.46-38.45-12.65-47.55h-.01s42.81-14.57,68.3,2.12c22.17,14.52,35.16,7.22,53.33-6.9Z"/>
    <path class="cls-27" d="M2415.68,744.44s-95.5,22.65-114.12,24.28c-11.33-17.41-19.42-19.84-19.42-19.84,0,0,1.19-.61,3.36-1.68,24.85-6.41,84.45-20.75,129.5-23.22-.21,17.34.68,20.46.68,20.46Z"/>
    <path class="cls-24" d="M2518.87,935.85c-10.51,116.96-162.68,529.32-199.1,645.06-116.95,2.83-363-40.88-363-40.88,0,0,5.35-15.05,13.23-35.7,4.08,1.78,9.38,4.07,16.32,6.97,27.11,11.34,95.91-4.04,176.84-23.47-7.07-2.79-12.35-10.9-15.98-18.83,31.37,2.66,61.03-3.53,83.96-23.26-5.39.02-10.65-.02-15.78-.15,39.24-10.29,109.68-112.76,109.68-112.76,0,0-15.38,8.1-46.95,5.27-18.37-1.65-40.17-10.84-55.19-18.23,27.11,1.3,50.7-4.59,66.12-19.4,55.85-13.77,95.51-95.11,87.81-133.96-45.62.27-68-10.44-78.18-18.17,21.62,1.3,42.5-2.09,59.97-12.98,0,0,20.24,14.16,59.9-30.44,39.65-44.59,36.01-70.33,20.23-66.69-15.78,3.64-40.46-6.88-40.06-18.62,14.98,0,47.35-19.01,82.55-88.94,34.59-68.68,28.49-105.12,28.27-106.39,7.76,14.99,15.22,46.35,9.36,111.56Z"/>
    <path class="cls-24" d="M2565,985.62c-37.22,145.68-114.52,386.88-126.66,520.02-31.16,28.72-55.76,77.29-55.76,77.29l-36.11-1.88s106.09-318.62,154.86-513.81c0,0,48.69-102.25,62.86-178.73,13.88-74.99,2.8-99.31,2.37-100.23,20.16,20.82,30.14,73.27-1.57,197.35Z"/>
    <path class="cls-17" d="M2661.42,1245.33c-27.32-7.89-44.62-7.59-44.62-7.59,0,0-8.5-45.83,38.85-74.66,47.35-28.83,64.95-3.44,64.95-3.44,0,0-61.61,43.8-59.18,85.69Z"/>
    <path class="cls-17" d="M2853.21,1240.87c-.64,13.93-5.12,27.83-12.21,38.96-23.48,36.82-66.37,50.99-66.37,50.99,0,0,12.95,7.68,13.76,14.16-63.53,17-68.39,17.81-68.39,17.81,0,0,6.47-16.6-8.1-30.75-12.54,30.75-33.99,48.96-33.99,48.96l-196.67,72.03,63.54-257.38s19.83-9.3,38.04-1.21c-4.86-18.21-14.17-23.87-14.17-23.87,0,0-7.95-29.37,5.35-60.05,11.89,8.22,37.5,20.32,65.47-1.47,20.66-16.1,30.22-29.16,34.62-37.79,13.38,7.22,22.28,17.28,22.44,24.04,2.83-50.19-55.04-66.77-55.04-66.77,0,0,5.17-8.5,14.47-18.53,6.75,9.4,21,22.06,47.86,18.93,19.85-2.31,35.94-9.49,47.34-16.38,10.22,16,10.94,25.69,10.94,25.69,0,0-34.81,23.87-38.05,49.78-3.04,24.37,1.78,45.14,2.37,47.52-.87-2.5-10.59-24.81-75.61-3.01-68.8,23.07-50.59,110.48-50.59,110.48,0,0-105.62,37.23-33.58,117.36-13.35-58.27-1.63-76.08,44.11-89.84,45.73-13.76,74.87,19.83,75.27,33.18,10.93-10.93-1.61-44.51-1.61-44.51,0,0,12.03-47.1,52.97-69.62-12.2,16.17-29.53,45.53-12.1,64.36,25.09,27.12,106.43,2.03,105.22-33.99-.45-13.38,1.06-22.01,3.12-27.58,6.11,5.01,10.66,11.05,13.83,17.69l5.79,30.84Z"/>
    <path class="cls-17" d="M2828.05,1159.64c-36.42-20.64-81.74-9.31-81.74-9.31,0,0-17.62-28.97-.87-61.1,9.13,7.5,28.42,18.28,66.08,21.85,32.21,3.05,56.57-8.91,72.27-20.8,4.7,25.86-5.69,56.99-55.74,69.36Z"/>
    <path class="cls-27" d="M2821.13,898.71c-9.34,29.62-41,76.87-49.74,88.54l-3.64-9.31s.44-20.78,4.88-43.75c13.66-8.4,33.86-21.31,48.5-35.47Z"/>
    <path class="cls-27" d="M2988.47,955.8c-5.11,4.03-11.5,8.45-19.19,13.23-51.39,31.97-182.51,56.65-182.51,56.65,0,0-3.24-3.64-4.46-8.5,12.93-15.75,39.24-35.13,69.39-51.95,14.01,3.96,47.66,10.82,90.06,1.37,18.49-4.13,34.09-7.77,46.7-10.8Z"/>
    <path class="cls-1" d="M2382.58,2951.41c-10.16,4.46-20.26,8.74-30.34,12.84h-.02s-.01.01-.02.02c-5.03,1.32-636.61,167.27-1044.12-156.79-83.77-149.33-107.32-295.01-107.32-295.01,0,0,39.33,40.06,106.11,135.97,66.77,95.91,242.81,140.83,242.81,140.83,0,0,72.84,144.47,216.1,100.76,126.22-38.51,183.17-296.64,194.93-357.46,5.77,1.76,11.5,2.09,15.1-1.29,4.95-4.64,8.8-20.8,5.18-38.98v-.02c1.74-7.45,2.5-16.79,1.42-28.37-4.18-44.92-51.52-64.34-51.52-64.34,0,0,112.5-53.82,129.5-57.87,8.89-2.11,11.25-10.2,11.47-17.45.21-6.6-1.36-12.49-1.36-12.49l-45.32-35.33s14.02-9.58,30.76-31.53c29.12-38.16,66.47-113.67,52.59-241.11,127.89-249.28,92.27-305.94,92.27-305.94,0,0,121.68,11.74,159,.1-24.66,207.89-89.6,866.2,22.79,1253.45Z"/>
    <path class="cls-1" d="M2500.26,2257.13c-12.95,224.18-5.67,297.84-5.67,297.84,0,0-68.79,242.81-67.17,358.54-53.68-232.41-66.72-536.36-53.87-827.61,25.39-145.2,70.29-393.65,89.06-445.34,34.9-5.48,83.09,5.43,129.91,76.73-50.18,157.82-79.31,315.65-92.27,539.84Z"/>
    <path class="cls-1" d="M2613.56,1701.9c-64.87-58.86-100.32-77.04-141.74-79.29,23.79-39.91,62.21-79.46,162.79-114.96,110.06-38.85,153.77-54.63,153.77-54.63,0,0-119.35,145.13-149.52,209.94-11.55,14.99-19.86,27.73-25.3,38.93Z"/>
    <path class="cls-1" d="M2876.88,1686.18h0s-5.79,32.82-5.79,32.82c-2.9,5.86-6.69,11.64-11.14,17.3l-282.59,123.64s16.63-90.23,63.74-172.39c18.53-32.32,63.43-82.51,112.55-132.91.04-.02.05-.04.05-.04l123.73-89.83s-12.43,153.9-.55,221.42Z"/>
    <path class="cls-1" d="M2987.69,1833.22c-265.87,46.13-424.3,95.91-424.3,95.91l7.89-34.6s68.65-30.53,167-72.23c0,0,107.19-6.6,174.75-27.32,28.7-8.8,51.43-17.41,68.07-24.39-2.9,19.35-2.45,41.52,6.59,62.63Z"/>
    <path class="cls-13" d="M3052.81,1728.01c-20.83,50.33-24.92,92.64-19.59,111.28,0,0-44.92,4.86-14.57-82.55.8-2.31,1.59-4.54,2.38-6.73,7.62-5.77,21.09-15.65,31.78-22Z"/>
    <path class="cls-13" d="M3294.84,1937.02c-15.39,7.92-41.88,14.67-66.19,19.67-67.71-59.03-129.74-61.76-149.91-111.93-7.2-17.92-6.68-41.33-2.29-65.55,10.31,2.91,25.28,11.02,47.01,28.72,65.56,53.42,74.47,99.55,132.74,99.55s92.82-18.78,93.92-19.36c.01-.01.02-.01.02-.01,0,0-21.51,31.52-55.3,48.91Z"/>
    <path class="cls-13" d="M3432.53,2146.01h-.01c-68.12.44-107.39-52.08-155.88-137.36-10.4-13.84-20.87-25.82-31.27-36.31,27.66,1.2,54.12.44,60.2-6.18,15.38,36.82,57.47,99.95,101.18,122.62,34.11,17.69,49,42.28,25.79,57.23Z"/>
    <path class="cls-13" d="M3568.92,2018.36c-4.46.32-8.9.45-13.27.4-66.77-.8-115.73-12.94-193.43-101.98,12.92-9.4,22.42-24.09,28.8-36.74,17.83,21.74,60.31,66.7,119.92,86.11,73.66,23.99,93.46,30.54,57.98,52.2Z"/>
    <path class="cls-13" d="M3661.77,1845.33h-.01c-24.95,8.61-57.29,11.95-94.37,5.5-97.73-17-146.9-73.45-146.9-73.45,0,0,3.64-26.71-20.03-32.17,0,0,10.32-33.39,57.67,4.25,47.35,37.64,191.21,16.39,211.24,41.88,12.14,15.44,7.14,36.91-7.6,53.99Z"/>
    <path class="cls-13" d="M3416.85,1467.19c-17,92.87-104.41,94.69-105.62,152.36-1.21,57.67,21.25,69.81-56.45,95.3,0,0-78.31-12.14-74.66-54.02,3.64-41.88,66.77-52.2,136.58-107.44,69.81-55.24,47.95-101.37,77.81-116.55,8.53-4.33,15.01-3.67,19.9-.47,3.31,7.64,4.65,17.66,2.45,30.82Z"/>
    <path class="cls-1" d="M2732.54,3354.61s5.28,13.08,7.41,27.26c-31.78-13.43-77.15-46.33-147.42-104.55-39.2-32.49-77.89-47.92-108.19-55.11-63.42-79.52-98.93-157.44-115.36-194.99,30.58-7.68,54.8-20.24,54.8-20.24l27.11-28.32c113.15,259.54,281.66,375.95,281.66,375.95Z"/>
    <path class="cls-13" d="M2818.94,3452.14c-4.36,4.02-8.53,7.3-12.54,9.94,6.25-12.1,12.54-29.06,12.54-48.39,0-24.95-19.44-32.77-37.06-32.35-5.23-36-28.49-57.88-28.49-57.88,44.31-55.24,112.91,84.98,65.56,128.69Z"/>
    <path class="cls-13" d="M2977.98,3582.04c30.35,96.52-20.03,116.55-102.36,103.19-12.32-2-23.86-5.22-34.58-9.63,68.71-.3,87.9-46.06,50.84-103.28-38.15-58.88-33.5-50.99-8-114.07,25.19-62.3-17.08-114.4-18.1-115.65-25.74-60.29-92.98-58.61-92.98-58.61,106.23-111.08,160.86-38.24,154.79,47.95-6.07,86.2,20.03,153.58,50.38,250.09Z"/>
    <path class="cls-13" d="M3028.94,3493.59c-15.32-8.97-32.21-14.7-42.02-17.59-19.59-65.48-23.31-93.95-15.62-159.23,9.71-82.55-44.31-93.48-44.31-93.48,69.81,4.25,81.95,33.39,78.31,120.19-2.22,52.81,9.72,104.94,23.65,150.12Z"/>
    <path class="cls-13" d="M3060.38,3642.45c-11.69-14.86-27.51-29.49-36.51-37.4-3.65-18.72-9.53-41.05-17.97-67.93-.3-.96-.61-1.92-.9-2.86,18.3,8.16,35.16,20.83,49.14,33.57.32.9.62,1.8.92,2.68,8.1,23.78,10.23,49.36,5.31,71.94Z"/>
    <path class="cls-13" d="M955.78,3312.23c-20.03-5.05-39.57-6-53.38-5.78-11.96.17-19.63,1.21-19.63,1.21,0,0-35.21-31.56-94.69-113.31,3.19-.58,6.99-.67,11.25-.39,26.65,1.8,70.73,18.62,89.51,26.22,14.99,17.65,30.25,38.17,46.93,63.19,6.8,10.2,13.44,19.8,20.01,28.85Z"/>
    <path class="cls-13" d="M1179.39,3297.14s-52.81-38.96-89.57-74.14c27.02,7.85,51.81-.25,65.39-6.56,31.95,28.4,43.64,48.14,24.18,80.7Z"/>
    <path class="cls-13" d="M1180.2,3533.48c-24.28-29.95-59.09-49.37-116.55-67.99-30.33-9.82-68.99-50.52-111.11-99.61l53.09,5.31c29.31,28.71,61.41,49.75,103.34,67.6,76.08,32.38,90.65,74.46,71.23,94.69Z"/>
    <path class="cls-13" d="M1198.82,3451.73s-12.95-22.67-84.17-50.99c-71.23-28.34-97.12-68.8-213.67-214.48-.38-.46-.74-.92-1.1-1.38,11.18,8.05,29.17,19.3,54.11,29.71,26.68,11.14,45.71,8.28,56.89,3.98,31.8,34.35,67.35,67.43,107,89.91,102.79,58.27,80.94,143.26,80.94,143.26Z"/>
    <path class="cls-1" d="M1576.99,3066.68s-210.63,1.21-282.87,41.88c-72.23,40.67-100.16,88.62-100.16,88.62,0,0-6.88-11.63-18.27-23.16,15.96-19.89,80.55-92.74,144.13-111.59,36.62-10.85,55.87-22.16,65.9-30.44,23.52-2.49,50.33-4.41,81.4-5.99l109.87,40.67Z"/>
    <path class="cls-6" d="M1886.56,2582.28s-34.76,134.33-102.22,199.38c8.39-57.5-54.58-137.04-54.58-137.04,34.04-34.49,83.91-61.28,156.8-62.34Z"/>
    <path class="cls-13" d="M373.38,1509.16c25.7,11.79,57.9,21.27,99.44,29.05-14.57,72.84-139.01,43.71-209.42-19.42-54.01-48.43-65.89-86.14-59.71-116.69,15.03,23.41,41.42,54.67,86.21,83.71,47.78,30.99,71.66,30.25,83.48,23.36Z"/>
    <path class="cls-13" d="M505.6,1491.47c-34.6,17.6-108.66-3.64-222.17-67.38-33.18-26.1-69.81-47.95-69.81-47.95-4.61-20.65-4.27-39.1-.36-55.24,80.36,68.41,234.16,54.5,234.16,54.5,21.03,11.36,49.63,22.62,88.53,32.31,7.89,16.39,4.25,66.16-30.35,83.77Z"/>
    <path class="cls-13" d="M562.06,1355.5c-62.53,12.81-137.45-25.92-163.52-41-.05-.02-.1-.06-.15-.09-2.88-1.83-5.92-3.68-9.15-5.55-.04-.02-.08-.05-.12-.07-.02-.01-.04-.02-.06-.04-62.73-36.21-98.94-64.95-98.94-64.95-2.25-9.48-2.95-18.59-2.38-27.17,42.64,18.53,154.21,71.82,219.08,56.31,23.33-5.58,38.4-13.74,48.09-22.33,7.34,7.08,13.33,13.99,17.47,20.51,28.53,44.92,4.25,79.52-10.32,84.38Z"/>
    <path class="cls-13" d="M585.62,1438.66c.11-30.96,3.14-47.91,28.64-86.78,25.49-38.87,3.64-89.86,3.64-89.86,0,0,26.72-.36,48.88,11.28-7.14,21.08-12.86,72.56-1.74,85.03,5.92,6.64,15.42,3.9,24.16-1.21-18.57,58.15-67.33,95.98-103.58,81.55Z"/>
    <path class="cls-1" d="M876.49,1638.37c-185.14,19.42-379.99-86.8-379.99-86.8,0,0-1.21-3.04,0-7.28,13.35.61,54.02-12.14,70.41-75.88,26.33,34.31,60.39,25.88,84.76,12.35,14.42,18.54,40.03,45.14,80.95,68.36,46.35,26.3,78.81,20.52,95.95,13.16,23.16,7.77,39.42,11.14,39.42,11.14l8.5,64.95Z"/>
    <path class="cls-26" d="M1169.68,1468.41c-4.05-10.93-170.57-80.13-193.03-84.38-22.46-4.25,13.56,401.24,44.62,499.17,14.06-228.24,31.06-314.49,67.08-334.09,36.02-19.6,92.73-49.96,81.34-80.71Z"/>
    <path class="cls-26" d="M1512.44,1576.86c54.35,12.27,193.03,48.56,220.95,44.92,27.92-3.64-26.3,83.36-92.67,68.39-66.37-14.97-99.15-67.99-128.28-84.58-29.14-16.59-51.13-40.28,0-28.73Z"/>
    <path class="cls-26" d="M1265.99,2318.23c37.41.46,57.06,21.04,57.87,37.23.81,16.19-68.39,34.8-106.43,14.97-38.04-19.83-17.4-53.01,48.56-52.2Z"/>
    <path class="cls-26" d="M1463.88,2417.31c39.87,20.01,93.08,14.23,98.74,23.94,5.67,9.71-71.63,31.56-111.29,4.45s-26.3-47.89,12.55-28.4Z"/>
    <path class="cls-26" d="M1465.5,2535.95c21.45,6.47,20.64,6.47,26.71,42.09,6.07,35.61,51.39,208.21,136.98,262.84-115.33-62.52-163.69-304.92-163.69-304.92Z"/>
    <path class="cls-26" d="M1913.68,2392.08c17.92-10.62,49.17-25.09,65.56-30.76,16.39-5.67-15.78-10.12-61.11,1.82-45.32,11.94-49.98,28.73-37.23,38.85,12.75,10.12,25-5.31,32.78-9.91Z"/>
    <path class="cls-14" d="M1874.06,2029.88c-60.11,63.96-80.68,224.56-13.2,313.03-12.94,10.53-14.36,13.56-14.36,13.56,0,0-124.84-134.96-52.81-337.29,23.52-54,59.68-91.83,97.15-108.07-7.72,20.25-24.55,71.71-16.78,118.78Z"/>
    <path class="cls-14" d="M1339.63,2281.8c-.51-.42-16.2-13.54-41.67-25.48-79.73-143.26-94.06-216.21-57.87-348.43,11.39-41.59,41-65.13,76.08-70.47-27.22,34.14-15.61,109.11-6.57,149.78-18.71,31.78-31.44,73.07-34.92,116.77-7.39,93.15,63.88,176.61,64.94,177.84Z"/>
    <path class="cls-26" d="M2519.08,1518.79s210.63-74.66,276.8-96.52c66.16-21.85,71.63-21.85,71.63-21.85l24.28-26.1s-156.61,43.71-314.43,104.41c-46.41,15.74-58.27,40.06-58.27,40.06Z"/>
    <path class="cls-23" d="M2399.49,848.44c-.65-1.54,39.25-37.23,60.3-27.11s-43.3,67.58-60.3,27.11Z"/>
    <path class="cls-23" d="M2277.28,996.15c22.66,16.59,105.62,39.25,108.86,47.35,3.24,8.09-90.92,15.48-123.83-14.97-32.91-30.45,14.97-32.37,14.97-32.37Z"/>
    <path class="cls-23" d="M2183.8,1128.48s68.8,41.68,120.19,45.32c-79.32,27.52-106.83.4-129.9-17.4-23.07-17.81,1.23-32.8,9.71-27.92Z"/>
    <path class="cls-23" d="M2097.6,1300.46s57.06,33.39,95.91,45.83c-52.2,20.13-83.36-.1-108.45-17.91-25.09-17.81,2.94-33.38,12.55-27.92Z"/>
    <path class="cls-23" d="M2079.39,1477.71s-33.18-14.97-46.54-19.83-1.62,37.23,46.54,19.83Z"/>
    <path class="cls-2" d="M1618.15,1218.22c1.2-.21,72.03-5.12,96.31,23.74,24.28,28.87,20.23-55.31-41.68-60.97-61.92-5.67-88.62,43.3-54.63,37.23Z"/>
    <path class="cls-9" d="M1996.43,954.26c26.21-13.1,114.12-81.95,122.01-97.12,7.89-15.18-27.32-22.26-58.27,5.56-30.96,27.82-107.44,113.41-63.74,91.56Z"/>
    <path class="cls-21" d="M1330.54,864.42c41.4,29.57,65.56,31.56,70.41,42.49,4.86,10.93-67.38-14.57-91.05-26.1-23.67-11.53-9.11-37.64,20.64-16.39Z"/>
    <path class="cls-21" d="M1261.14,990.08c29.32,24.26,77.7,34.8,76.08,43.71-1.62,8.9-105.22-22.26-118.57-34.8-13.35-12.55,7.28-38.04,42.49-8.9Z"/>
    <path class="cls-21" d="M1223.1,1105.01c43.98,24.93,89.84,32.78,87.82,40.87-2.02,8.09-94.29-9.31-118.98-29.95-24.69-20.64-32.37-46.94,31.16-10.93Z"/>
    <path class="cls-21" d="M1195.98,1232.88c36.1,19.68,65.15,19.02,71.22,25.49,6.07,6.47-48.56,6.47-87.01-12.75-38.44-19.22-38.02-42.07,15.78-12.75Z"/>
  </g>
  <g>
    <path class="cls-7" d="M3760.39,1758.34c-11.8-25.3-33.74-42.48-65.18-51.06-19.93-5.45-42.53-7.41-68.68-9.68l-.23-.02c-24.69-2.15-52.68-4.59-84-10.38-87.8-16.26-167.65-61.95-168.45-62.43-3.17-1.83-6.51-3.33-9.96-4.48,3.08-4.2,15.13-13.69,20.52-17.94,28.29-22.31,71.02-56.04,83.79-125.76.01-.05.04-.17.04-.22.05-.27.1-.52.13-.79,6.22-37.59-5.32-62.83-16.12-77.41-15.19-20.47-38.95-33.74-66.84-37.37-2.33-.32-4.77-.47-7.25-.47-9.92,0-34.82,3.11-51.67,31.9-3.82,6.52-7.07,13.88-10.53,21.68-11.04,24.97-27.73,62.72-69.5,90.57-27.62,18.42-52.65,32.44-74.74,44.8l-.16.08c-39.43,22.07-71.25,39.87-89.57,68.36-9.48.01-36.38.47-62.1,26.76-5.33,5.45-10.37,11.7-15.28,18.99-1.72-.17-3.45-.25-5.18-.25-6.62,0-13.1,1.23-19.25,3.64-16.32,6.39-33.19,13.06-50.41,19.96l51.66-293.12c.16-.86.51-2.28.87-3.79,2.84-11.46,9.51-38.3-14.13-59.84-9.26-8.45-48.59-25.24-75.02-35.98,10.32-20.75,23.33-61.26.72-107.79,22.11-16.41,32.61-36.24,37.57-50.87,11.4-33.5,3.69-66.64-8.91-90.17,32-10.4,56.96-21.11,74.32-31.9,16.23-10.1,28.41-19.38,37.23-28.36,25.94-26.42,23.61-52.11,19.91-65.07-5.71-19.95-21.35-35.17-42.93-41.79-9.66-2.97-20.95-4.42-34.5-4.42-7.25,0-15.42.43-24.27,1.25-22.17,2.05-48.91,9.37-77.18,21,2.12-15.22.13-28.51-5.94-40.66-10.47-20.92-31.19-33.41-55.43-33.41-3.4,0-6.86.24-10.28.72-28.03,3.88-64.76,23.39-80.56,94.28-.63,2.85-1.24,5.82-1.81,8.85-.81-.01-1.61-.02-2.42-.02-20.49,0-40.44,5.26-59.4,15.65-8.56-3.18-18.23-4.67-29.97-4.67h-.04c8.02-44.11,10.21-80.15,6.69-109.8-6.84-57.68-35.26-82.86-57.9-93.83-17.02-8.24-36.26-12.43-57.19-12.43-17.07,0-35.07,2.74-53.71,8.18,0-5.39.15-13.74.67-26.3.63-14.79-5.07-29.2-15.66-39.53-9.81-9.6-22.76-14.88-36.49-14.88-.98,0-1.99.04-3.38.11-51.88,3.38-137.26,45.7-153.82,54.13-3.69,1.87-7.13,4.15-10.25,6.84-8.32-1.26-17.13-1.91-26.31-1.91-46.46,0-98.35,15.93-125.14,25.42-17.03,6.02-33.57,12.83-46.55,19.16-8.55,4.18-20.57,10.04-30.18,19.81-11.46-3.76-24.64-7.66-39.46-11.68,8.55-6.6,16.09-15.83,19.66-28.95.49-1.78.89-3.59,1.19-5.4,6.81-1.78,13.15-3.65,18.68-5.52,8.21-2.78,14.9-5.62,20.5-8.7,31.82-17.55,31.72-46.29,30.93-54.69v-.04c15.33-6.62,28.03-12.91,38.62-19.11,18.77-11.02,44.3-29.25,49.19-60.18,3.68-23.13-5.37-45.09-24.8-60.26-15.84-12.37-35.04-13.8-48.1-13.8-18.19,0-41.3,3.1-61.83,6.65.96-14-3.62-27.84-12.86-38.51-10.4-11.98-25.17-18.57-41.58-18.57-7.11,0-23.77,0-77.21,25.62-27.85,13.35-57.22,29.83-83.94,47.04-10.04-11.81-24.9-18.81-41-18.81-17.4,0-30.65,6.8-64.1,26.21-44.31,25.7-77.08,67.79-94.99,94.86-6.76-.96-13.89-1.43-21.27-1.43-30.17,0-66.2,8.02-101.47,22.59-4.59,1.91-9.18,3.91-13.74,6.03-5.69-11.18-17.23-24.97-40.48-31.47-7.67-2.15-15.66-3.24-23.73-3.24-28.27,0-56.25,13.26-76.75,36.36-22.99,25.93-33.74,61.22-29.45,96.83.13,1.17.32,2.32.53,3.46-20.17,10.53-40.14,24.68-59.51,42.2-39.32,35.57-77.49,86.09-113.48,150.16-33.19,59.12-55,175.37-60.96,210-2.73.44-5.33.92-6.98,1.38-48.33,13.34-121.89,48.46-130.12,52.42-.01,0-.11.06-.12.06-15.35,7.42-64.06,40.65-70.17,45.1-14.82,10.84-22.95,28.93-21.17,47.23.08.83,7.87,79.88,25.06,213.45-38.58-10.63-113.48-39.29-135.36-84.33-2.93-6.03-6.98-11.42-11.85-15.89,14.54-23.59,24.38-50.44,28.64-78.45,6.53-42.79-8.8-71.23-22.82-87.56-35.11-40.86-94.11-42.94-105.58-42.94h-1.06c-8.22.15-16.21,2.17-23.36,5.83-19.5-19.41-47.31-40.23-82.89-62.03-38.24-23.43-83.2-46.17-111.85-56.6-12.02-4.37-24.69-6.59-37.67-6.59-36.82,0-73.21,18.2-97.33,48.68-16.27,20.57-25.92,45.21-28.14,71.66-20.21,11.98-37.64,28.13-50.67,47.03-15.42,22.36-32.18,59.6-25.8,110.95-10.49,26.39-12.23,53.65-5.12,81.1,9.36,36.13,33.67,71.4,74.27,107.81,50.44,45.22,123.27,75.61,181.22,75.61,32.39,0,59.97-9.07,80.45-26.33,50.78,24.79,191.34,86,339.66,86,17.76,0,35.27-.89,52.06-2.65,2.15-.23,4.27-.59,6.37-1.08,26.28,183.63,56.54,366.38,89.97,543.45,38.7,206.03,101.93,363.31,148.17,458.99,50.73,105,92.73,161.32,94.5,163.66,2.33,3.11,5.01,5.95,7.96,8.44,2.82,2.39,68.11,57.24,180.93,113.63-74.95,6.01-120.88,15.79-160.02,33.16-51.29,22.75-85.83,56.43-136.6,109.18-3.23,3.36-6,7.15-8.22,11.25-3.13-.29-6.34-.43-9.64-.43-13.15,0-25.09,2.2-40.28,5l-5.28.97c-10.99,2.02-20.89,7.47-28.4,15.33-7.68-8.91-15.09-17.7-22.34-26.3l-.64-.76c-29.89-35.46-55.7-66.1-81.75-84.65-37.3-26.55-77.09-40.01-118.27-40.01-33.26,0-66.1,8.87-97.61,26.39-9.53,5.29-32,23.82-54.21,42.35-3.7,3.1-7.53,6.29-8.67,7.19-10.73,7.05-34.36,32.14-42.1,67.57-6.37,29.1-.44,58.75,17.15,85.75,32.55,49.93,121.68,177.01,246.15,278.23,48.17,39.19,98.17,71.97,144.58,94.79,47.34,23.3,89.8,35.61,122.8,35.61,26.7,0,48.39-7.7,64.44-22.87,8.32-7.84,13.89-18.38,15.71-29.7.4-2.48.66-4.95.78-7.44,3.81-2.33,7.33-5.15,10.43-8.36,18.59-19.36,26.07-46,20.53-73.1-.58-2.8-1.3-5.62-2.15-8.41,6.3-6.48,10.85-14.52,13.12-23.37,1.48-5.72,8.32-36.24-1.93-75.88-5.41-20.87-14.65-40.61-27.51-58.83,1.55-1.92,2.99-3.96,4.27-6.12,18.95-31.72,22.01-62.8,9.11-92.4,2.12-2.44,4.02-5.09,5.67-7.92,1.09-1.72,24.47-37.87,80.76-69.55,41.62-23.43,175.66-34.67,257.54-35.17,5.69-.04,26.6-1.27,66.16-3.65,81.92-4.93,219.02-13.18,285.02-13.18h.18c138.93,0,258.07-20.74,384.81-67.12,4.02,5.31,5.21,7.55,7.68,13.22,20.7,47.32,54.95,119.01,113.15,194.84,60.97,79.42,132.61,142.41,213.03,187.26,4.94,17.41,16.24,44.96,41.48,69.88,3.5,65.34,19.66,117.87,48.05,156.19,63.49,85.64,154.23,103.62,219.17,103.62,17.13,0,30.73-1.24,38.86-1.98,2.51-.23,5.35-.49,6.16-.49,4.16,0,8.35-.51,12.42-1.49,36.83-9.02,65.72-30.97,83.53-63.47,21.16-38.63,23.96-90.53,7.51-138.82-2.25-6.59-4.65-13.43-7.58-21.68-17.82-50.65-42.25-120.01-39.47-186.33,2.09-49.8-.35-89.32-19.11-120.29-26.84-44.32-74.6-52.15-108.18-54.19-.27-.01-.52-.02-.79-.02h-.13c-3.62,0-36.11.12-63.59,4.37-48.05,7.41-90.48,30.78-129.71,71.47h-.55c-7.24,0-20.06,1.75-33.74,11.85-10.44-10.29-20.78-21.08-30.85-32.16-48.11-52.97-117.02-142.62-172.06-268.9-1.36-3.13-3.23-7.03-5.39-11.53-3.99-8.35-13.33-27.85-13.73-33.39.12-.89,1.25-6.36,12.18-22.1,7.45-10.72,16.47-21.94,23.07-30.14,3.63-4.5,6.49-8.07,8.22-10.45,7.93-10.99,14.63-20.76,19.98-29.12,102.37-21.6,185.98-45.26,248.56-70.37,46.13-18.49,103.48-58.42,111.34-66.98,9.86-10.77,14.77-25.28,13.51-39.84-.4-4.48-39.07-448.82-10.22-742.65,29.79-5.75,60.14-11.31,90.37-16.56.96-.17,1.93-.38,2.9-.6,10.09,4.9,21.2,7.48,32.46,7.48,3.11,0,5.49-.19,6.81-.35,1.93-.21,3.84-.52,5.73-.93,20.36,28.6,49.5,44.08,77.77,59.09,34.08,18.08,72.66,38.55,110.66,88.13,22.45,39.31,47.38,79.65,77.47,109.04,35.6,34.79,75.26,51.71,121.27,51.71,8.63,0,17.64-.63,26.81-1.87,13.89-1.89,25.28-5.09,34.83-9.76,22.03-10.78,31.06-27.34,34.75-39.32,4.82-15.66,3.42-31.77-4.15-47.87-5.78-12.26-13.63-21.2-17.46-25.54-2.15-2.44-4.43-4.89-6.82-7.37,17.58,3.13,35.79,4.24,55.34,4.48.83.01,1.64.01,2.48.01,12.98,0,26.33-1.23,39.69-3.64,13.45-2.42,26.13-5.91,37.67-10.36,47.75-18.34,60.8-46.91,63.35-67.62,1.57-12.78,1.18-45.19-36.43-69.92-8.05-5.31-17.65-10.14-28.93-14.57,53.53-6.05,98.43-29.73,120.77-64.8,16.47-25.88,18.96-55.68,6.81-81.73ZM614.26,1351.88c25.49-38.87,3.64-89.86,3.64-89.86,0,0,26.72-.36,48.88,11.28,18.08,9.49,33.12,26.98,28.21,59.14-1.3,8.55-3.27,16.8-5.79,24.68-18.57,58.15-67.33,95.98-103.58,81.55.11-30.96,3.14-47.91,28.64-86.78ZM283.43,1424.09c20.4,37.33,45.43,64.66,89.95,85.07,25.7,11.79,57.9,21.27,99.44,29.05-14.57,72.84-139.01,43.71-209.42-19.42-54.01-48.43-65.89-86.14-59.71-116.69,1.87-9.28,5.4-17.89,9.93-25.96-4.61-20.65-4.27-39.1-.36-55.24,9.97-41.26,43.24-67.49,76.85-77.09-2.25-9.48-2.95-18.59-2.38-27.17,3.4-51.91,53.33-85.14,93.43-70.56,39.95,14.53,130.48,62.78,173.74,104.54,7.34,7.08,13.33,13.99,17.47,20.51,28.53,44.92,4.25,79.52-10.32,84.38-62.53,12.81-137.45-25.92-163.52-41-.05-.02-.1-.06-.15-.09-5.18-3.01-8.4-5.06-9.15-5.55-.04-.02-.08-.05-.12-.07-.02-.01-.04-.02-.06-.04,0,0-2.34,33.82,58.37,66.64,21.03,11.36,49.63,22.62,88.53,32.31,7.89,16.39,4.25,66.16-30.35,83.77-34.6,17.6-108.66-3.64-222.17-67.38ZM496.5,1551.57s-1.21-3.04,0-7.28c13.35.61,54.02-12.14,70.41-75.88,26.33,34.31,60.39,25.88,84.76,12.35,18.32-10.19,31.18-23.27,31.18-23.27,27.78,57.16,100.12,89.5,145.72,104.8,23.16,7.77,39.42,11.14,39.42,11.14l8.5,64.95c-185.14,19.42-379.99-86.8-379.99-86.8ZM2876.88,1686.18h0s-5.79,32.82-5.79,32.82l-2.37,13.46-8.78,3.84-282.59,123.64s16.63-90.23,63.74-172.39c18.53-32.32,63.43-82.51,112.55-132.91.04-.02.05-.04.05-.04,75.78-77.73,161.61-155.97,176.34-169.95l-53.15,301.54ZM2925.17,1358.74c-153.5,159.26-242.81,247.75-286.31,304.22-11.55,14.99-19.86,27.73-25.3,38.93-64.87-58.86-100.32-77.04-141.74-79.29-14.4-.78-29.51.36-46.84,2.4,0,0,53.42-92.27,82.55-117.36,29.14-25.08,328.6-130.3,417.63-148.91ZM2828.05,1159.64c-36.42-20.64-81.74-9.31-81.74-9.31,0,0-17.62-28.97-.87-61.1.28-.53.57-1.08.87-1.63,18.21-32.78,105.62-50.18,124.63-26.3,5.8,7.28,10.78,17.63,12.84,28.98,4.7,25.86-5.69,56.99-55.74,69.36ZM2825.81,980.94c.38-.24.74-.5,1.12-.74.52-.34,1.04-.68,1.58-1.02.36-.24.73-.47,1.1-.72.55-.35,1.12-.7,1.68-1.07.34-.22.68-.44,1.03-.66.62-.39,1.24-.78,1.87-1.17.29-.18.58-.38.89-.56.9-.56,1.81-1.12,2.72-1.66.02-.01.04-.02.06-.04.95-.58,1.91-1.17,2.88-1.74l.44-.25c.81-.49,1.63-.97,2.44-1.44.23-.15.46-.28.7-.41.73-.43,1.47-.86,2.21-1.29.25-.15.52-.3.79-.45.73-.41,1.44-.83,2.17-1.24.26-.15.51-.29.76-.43.49-.28.97-.56,1.46-.83.24-.13.47-.27.72-.4.38-.21.74-.4,1.12-.61.69-.39,1.4-.76,2.09-1.15.3-.16.61-.33.91-.49.76-.41,1.54-.84,2.32-1.25.17-.1.35-.18.52-.28,7.07-3.75,14.3-7.34,21.57-10.7.06-.02.12-.06.18-.09.98-.45,1.97-.9,2.96-1.35.1-.05.19-.08.29-.13.97-.44,1.93-.86,2.9-1.29.12-.05.23-.1.34-.15.96-.43,1.93-.84,2.89-1.25.12-.06.24-.11.35-.16.97-.41,1.93-.83,2.89-1.23.11-.04.22-.08.33-.13.97-.4,1.95-.8,2.93-1.2.08-.04.17-.07.25-.1,1.01-.41,2-.81,3.01-1.21.04-.01.06-.02.1-.04,8.39-3.3,16.71-6.2,24.77-8.57.12-.04.25-.07.38-.11.84-.24,1.68-.49,2.5-.72.22-.06.45-.12.67-.18.76-.22,1.53-.43,2.29-.63.28-.07.56-.15.84-.22.72-.18,1.43-.36,2.15-.55.33-.08.64-.16.96-.24.68-.16,1.36-.33,2.04-.49.35-.07.69-.16,1.04-.24.64-.15,1.29-.28,1.93-.42.38-.09.74-.16,1.12-.23.62-.13,1.23-.26,1.83-.38.4-.09.79-.16,1.19-.23.58-.11,1.17-.22,1.75-.33.41-.07.83-.15,1.24-.22.55-.08,1.09-.18,1.64-.27.46-.07.9-.15,1.35-.21.51-.07,1.01-.16,1.51-.23.52-.07,1.04-.13,1.57-.19.41-.05.83-.11,1.24-.16.93-.11,1.86-.21,2.77-.29,1.37-.12,2.71-.24,4.02-.34.21-.02.41-.04.62-.05,1.26-.1,2.49-.18,3.69-.25.21-.01.41-.02.62-.04,1.23-.07,2.43-.13,3.59-.18.06,0,.13,0,.19-.01,1.17-.04,2.29-.07,3.4-.1.11,0,.23-.01.34-.01,1.1-.02,2.16-.02,3.21-.02h.47c1.03,0,2.05.02,3.02.05.1,0,.18.01.27.01,1,.02,1.97.07,2.89.12.02.01.05.01.07.01.93.05,1.82.12,2.7.21.11.01.23.02.35.02.84.08,1.65.18,2.43.28.1.01.18.02.27.05,1.6.22,3.07.49,4.42.8.07.02.15.04.22.05.64.16,1.26.33,1.85.51.07.02.16.05.23.07.58.18,1.14.38,1.68.59.01,0,.02.01.04.01.52.21,1.02.44,1.48.67.04.02.07.04.1.06.45.23.86.47,1.25.73.05.04.1.07.16.11.38.25.72.52,1.03.8l.07.07c.32.29.61.58.85.9h.01c.24.33.45.64.63.98.02.04.05.08.07.12.17.33.3.67.41,1.02.01.04.01.09.02.12.21.73.27,1.51.21,2.33-.01.04-.01.07-.01.12-.04.4-.11.81-.22,1.24-.01.05-.02.1-.04.16-.12.42-.25.87-.45,1.34h0c-.19.49-.41.97-.68,1.46-.01.02-.02.06-.04.08-.25.47-.55.97-.87,1.47-.04.06-.07.12-.11.17-.33.51-.69,1.02-1.08,1.55l-.09.09c-.83,1.09-1.8,2.22-2.91,3.4-.05.05-.1.11-.16.17-.55.57-1.13,1.15-1.75,1.75-.05.05-.11.11-.16.16-1.29,1.23-2.71,2.5-4.29,3.81-.05.05-.11.1-.16.15-.78.64-1.59,1.3-2.43,1.97-.04.02-.07.06-.11.09-.07.05-.15.11-.21.17-.5.38-1.01.76-1.52,1.17-.15.11-.29.22-.45.34-.51.39-1.03.78-1.57,1.18-.16.11-.3.22-.45.33-.67.49-1.35.98-2.05,1.48-.13.08-.27.18-.39.28-.57.4-1.15.8-1.74,1.21-.36.24-.74.5-1.12.75-.35.25-.72.5-1.08.74-.42.29-.85.57-1.29.86-.34.22-.68.45-1.03.68-.45.3-.9.59-1.36.9-.36.23-.74.47-1.1.7-.45.29-.89.57-1.35.86-.81.52-1.65,1.04-2.5,1.58-51.39,31.97-182.51,56.65-182.51,56.65,0,0-3.24-3.64-4.46-8.5.42-.52.86-1.03,1.31-1.57.12-.12.24-.26.35-.39.35-.4.69-.79,1.06-1.19l.44-.47c.34-.38.69-.75,1.04-1.14.17-.17.33-.34.5-.51.35-.36.7-.74,1.08-1.12.17-.17.34-.35.52-.52.36-.38.74-.75,1.12-1.13.18-.17.36-.35.55-.53.4-.38.79-.75,1.19-1.13.18-.18.38-.35.56-.53.41-.39.84-.78,1.25-1.17.19-.17.38-.34.57-.51.44-.4.87-.8,1.32-1.2.19-.17.38-.33.56-.5.47-.41.96-.84,1.43-1.25.18-.15.35-.3.52-.45.52-.45,1.04-.9,1.58-1.34.15-.13.29-.26.45-.38.59-.51,1.21-1.02,1.83-1.52.07-.07.16-.15.24-.21,2.15-1.76,4.41-3.53,6.74-5.31.13-.1.27-.19.39-.29.64-.49,1.27-.96,1.93-1.44.22-.17.45-.33.67-.5.57-.41,1.13-.84,1.71-1.25.27-.19.53-.39.8-.58.53-.39,1.07-.78,1.61-1.17.3-.21.61-.42.91-.64.52-.36,1.04-.73,1.57-1.1.32-.22.64-.45.97-.68.51-.35,1.03-.7,1.54-1.06.35-.24.69-.47,1.04-.72.51-.34,1.01-.68,1.52-1.02.36-.25.73-.5,1.1-.74.5-.34,1.01-.67,1.52-1.01ZM2772.63,934.18c5.23-26.89,15.98-56.79,38.02-59.84,14.1-1.95,15.38,8.75,10.48,24.37-9.34,29.62-41,76.87-49.74,88.54l-3.64-9.31s.44-20.78,4.88-43.75ZM2740.24,981.58s-3.24,19.42,8.9,27.92c.7,1.04,1.37,2.05,2.02,3.05,10.22,16,10.94,25.69,10.94,25.69,0,0-34.81,23.87-38.05,49.78-3.04,24.37,1.78,45.14,2.37,47.52-.87-2.5-10.59-24.81-75.61-3.01-68.8,23.07-50.59,110.48-50.59,110.48,0,0-105.62,37.23-33.58,117.36-13.35-58.27-1.63-76.08,44.11-89.84,45.73-13.76,74.87,19.83,75.27,33.18,10.93-10.93-1.61-44.51-1.61-44.51,0,0,12.03-47.1,52.97-69.62,12.15-6.68,26.85-11.21,44.55-11.68,23.46-.63,40.28,5.12,51.68,14.46,6.11,5.01,10.66,11.05,13.83,17.69,4.54,9.46,6.29,20.15,5.79,30.84-.64,13.93-5.12,27.83-12.21,38.96-23.48,36.82-66.37,50.99-66.37,50.99,0,0,12.95,7.68,13.76,14.16-63.53,17-68.39,17.81-68.39,17.81,0,0,6.47-16.6-8.1-30.75-12.54,30.75-33.99,48.96-33.99,48.96l-196.67,72.03,63.54-257.38s19.83-9.3,38.04-1.21c-4.86-18.21-14.17-23.87-14.17-23.87,0,0-7.95-29.37,5.35-60.05,4.7-10.85,12.07-21.88,23.38-31.82,26.05-22.88,56.5-18.38,76.71-7.44,13.38,7.22,22.28,17.28,22.44,24.04,2.83-50.19-55.04-66.77-55.04-66.77,0,0,5.17-8.5,14.47-18.53,16.75-18.06,46.89-41.08,84.28-28.42ZM2661.42,1245.33c-27.32-7.89-44.62-7.59-44.62-7.59,0,0-8.5-45.83,38.85-74.66,47.35-28.83,64.95-3.44,64.95-3.44,0,0-61.61,43.8-59.18,85.69ZM2642,990.68c-23.37,20.94-25.79,36.42-25.79,36.42,0,0-20.35-1.82-36.13,16.39l14.87-50.99s36.72-6.68,47.04-1.82ZM2555.29,780.05c3.95,1.92,7.76,4.58,11.27,8.19,0,0,0,.01.01.02,20.16,20.82,30.14,73.27-1.57,197.35-37.22,145.68-114.52,386.88-126.66,520.02-31.16,28.72-55.76,77.29-55.76,77.29l-36.11-1.88s106.09-318.62,154.86-513.81c0,0,0-.01.01-.04.01-.06.05-.22.11-.47,10.95-43.89,18.99-81.51,22.27-107.81,8.97-72.16,2.12-109.2-6.88-128.2-.01-.02-.01-.04-.01-.04-8.86-18.68-19.81-19.87-19.81-19.87,0,0,6.33,1.58,12.48,13.45,0,0,0,.01.01.04,7.76,14.99,15.22,46.35,9.36,111.56-10.51,116.96-162.68,529.32-199.1,645.06-116.95,2.83-363-40.88-363-40.88,0,0,5.35-15.05,13.23-35.7,10.9-28.52,26.64-67.69,39.78-92.58,37.88,28.59,89.61,53.2,137.39,57.25,31.37,2.66,61.03-3.53,83.96-23.26-5.39.02-10.65-.02-15.78-.15h-.01c-146.56-3.54-193.02-66.63-193.02-66.63,0,0,22.67-64.34,56.66-118.16,43.11,34.48,98.43,56.88,143.91,59.06,27.11,1.3,50.7-4.59,66.12-19.4-142.04,1.21-197.49-68.8-197.49-68.8,0,0,30.76-72.03,75.68-133.94,24.22,17.96,79.96,47.54,131.43,50.61,21.62,1.3,42.5-2.09,59.97-12.98-120.19-9.71-174.41-67.99-174.41-67.99,0,0,33.99-63.94,79.71-108.86,111.29,85.95,151.75,34.39,151.75,34.39,0,0-89.43-5.66-127.62-63.93,102.65-127.89,211.91-175.76,267.23-148.93ZM1652.86,916.83l-84.98,233.49s-54.63,41.68-74.46,62.32c14.24-46.33,31.41-100.56,48.73-153.65,0,0,.01-.01.02-.05,34.87-106.88,70.32-209.18,83.57-233.37l295,83.04,13.37,3.76-59.49,62.73-221.77-58.27ZM1856.82,991.69s-50.99,44.52-122.62,167.14c-17.81-26.71-60.7-55.03-148.11-18.21,6.92-20.17,19.58-54.58,32.6-89.51.01-.04.02-.06.04-.09.01-.02.02-.04.02-.06,0,0,.01-.02.02-.06,21.22-56.89,43.4-115.05,43.4-115.05l169.07,48.5,25.58,7.34ZM1671.98,1160.04c61.31,5.77,85.88,87.26,129.6,125.96,60.7,53.72,137.79,32.48,156,102.28,18.21,69.81-55.24,144.47-55.24,144.47,0,0-246.45-38.24-471.04-115.33-2.79-35.19,6.31-68.79,22.61-99.42,50.84-95.65,171.64-162.33,218.08-157.96ZM1807.96,1200.71c-3.64-23.37,20.34-30.96,24.58-9.11,4.25,21.85-25.8,58.27-25.8,58.27l-6.37-8.19s11.23-17.6,7.59-40.97ZM1860.67,1230.29c13.97-6.41,31.31-11.59,52-12.88,24.55-1.52,41.75,3.62,50.2,10.55,13.5,11.07,4.66,26.71-32.29,27.09-60.09.61-106.53,15.18-106.53,15.18,0,0-4.86-1.52-6.98-7.89,0,0,14.53-18.68,43.61-32.04ZM2285.5,747.21c16.69-8.28,91.5-44.37,130.18-46.89-.41,9.92-.62,17.64-.68,23.66-.21,17.34.68,20.46.68,20.46,0,0-95.5,22.65-114.12,24.28-11.33-17.41-19.42-19.84-19.42-19.84,0,0,1.19-.61,3.36-1.68ZM2266.35,769.94c8,5.35,13.6,15.96,17.12,29.02,6.17,22.93,5.85,53.34.69,75.79-14.17,20.24-46.13,51.8-46.13,51.8,0,0-3.24-4.05,0-31.16,3.24-27.11-.81-53.02-28.32-47.14-27.52,5.86-30.35,42.28-48.56,42.28s-9.31-33.59,13.35-39.25c20.82-5.21,23.46-38.45-12.65-47.55-3.18-.81-6.67-1.43-10.47-1.82-46.9-4.86-75.22,10.53-93.43,8.5-18.21-2.03,152.15-78.1,208.4-40.46ZM2074.74,835.89c72.84-17,91.66-13.96,81.95,0-9.71,13.96-32.78,23.98-23.37,57.67.06.21.12.41.18.62,9.68,32.97,45.7,25.36,53.54,6.36,7.89-19.12,26.1-37.33,31.26-28.23,5.16,9.11-15.78,47.35,6.37,72.84-51.9,58.27-150.71,182.4-232.49,413.58-30.14-37.23-39.46-43.3-66.57-49.37-27.12-6.07-57.06-17.4-57.06-17.4,0,0,20.37-6.12,45.32-8.5,25.83-2.48,58.22-4.55,68.93-22.05,21.04-34.41,3.1-64.56-62.46-66.99-36.31-3.98-64.76,11.3-65.55,11.73.17-.68,13.9-53.43-25.09-57.05-39.26-3.64-44.12,42.09-40.48,55.85,3.64,13.75-3.23,17.81-3.23,17.81,0,0-23.88-30.35-26.31-37.84,0,0,8.8-15.42,25.43-40.61,45.26-68.56,148.44-209.43,289.61-308.43ZM2023.14,828.21l-59.89,57.06s-143.94-42.58-238.4-67.18c-25.97-6.76-48.2-12.18-62.68-14.97l96.31-37.23s130.34,22.46,217.47,46.96c18.13,5.1,34.37,10.28,47.19,15.37ZM1642.34,673.21s27.95-51.67,71.92-84.53c5.09-3.81,10.4-7.37,15.9-10.56,53-30.76,43.71-21.85,23.07,8.09-35.62,36.02-29.55,61.92-29.55,61.92,0,0,25.91-19.01,98.75-68.79,72.84-49.78,151.34-81.34,150.13-72.84s-12.14,15.78-59.49,51.79c-45.72,12.55-82.55,36.02-78.91,62.73,84.18-40.88,251.72-75.67,268.3-62.73,13.89,10.84,3.4,27.06-53.98,51.5h0c-11.19,4.77-24.17,9.86-39.09,15.27-74.47,4.05-117.76,31.56-117.76,31.56,0,0-2.03,9.71,40.06,8.1,129.49-17,94.69,4.04,30.75,16.18-21.1-2.62-38.63-.86-52.69,2.68-29.38,7.45-43.62,22.81-43.62,22.81,0,0,86.2,2.03,83.77,10.93-.51,1.87-5.43,4.26-12.89,6.88h-.01c-28.2,9.92-92.72,23.07-92.72,23.07l-86.2-19.02-84.96,38.04c1.49-1.15,82.28-63.2,122.2-99.87t.02-.01c7.76-7.13,13.97-13.29,17.76-17.87-4.99,1.65-10.56,3.81-16.61,6.45-67.95,29.51-197.16,118.59-269.9,223.1.91-48.86-40.06-83.46-40.06-83.46,0,0,127.87-8.5,160.65-52.2,32.78-43.71-4.86-69.2-4.86-69.2ZM1473.7,712.94c70.72-39.26,143.66-44.77,157.92-16.96,1.76,3.44,2.46,6.85,2.21,10.2-2.46,31.26-88.59,57.97-175.21,65.38-11.23-11.23-41.88-18.21-41.88-18.21,17.96-16.06,37.37-29.53,56.96-40.4ZM1363.55,700.86c12.81-21.01,35.39-32.35,54.4-27.04,1,.28,1.89.57,2.7.89,23.82,9.15-32.29,32.29-45.79,71.05,0,0-13.05-2.73-20.94,1.52-2.15-17.92,2-33.88,9.64-46.41ZM1112.51,1258.6c1.13-71.96,11.53-192.65,62.63-283.7,77.7-138.4,171.18-219.13,267.69-177.86,2.14.91,4.19,1.95,6.17,3.13,87.57,51.81,25.76,353.39-65.65,603.88l-269.52-83.77s-1.92-24.24-1.32-61.7ZM1075.59,1211.03c1.82,70.41,12.75,99.55,12.75,99.55,0,0-70.41-23.07-134.15-50.38,0,0,75.27-36.42,121.4-49.17ZM1147.01,3209.33c2.86,2.44,5.6,4.81,8.19,7.11,31.95,28.4,43.64,48.14,24.18,80.7,0,0-52.81-38.96-89.57-74.14-13.51-12.92-24.85-25.34-30.62-35.12,42.09-7.68,49.78-10.93,87.81,21.45ZM1155.11,3577.18c-29.14,27.52-141.64-11.33-263.04-110.08-121.4-98.74-208.81-218.53-233.9-263.85-23.69-42.78,10.51-84.98,97.92,4.86,87.41,89.84,194.25,244.42,278.43,288.13,84.17,43.71,123.83,60.7,120.59,80.94ZM1180.2,3533.48c-24.28-29.95-59.09-49.37-116.55-67.99-30.33-9.82-68.99-50.52-111.11-99.61-16.29-18.99-33.09-39.23-50.15-59.43-22.4-26.55-45.21-53.03-67.79-76.48-12.91-13.4-24.58-25.36-35.28-36-59.06-58.67-88.53-76.81-133.07-74.08,0,0,52.62-33.18,114.93,8.1,42.86,28.38,74.61,53.33,107.65,92.21,14.99,17.65,30.25,38.17,46.93,63.19,6.8,10.2,13.44,19.8,20.01,28.85,16.61,22.85,32.75,42.21,49.86,58.95,29.31,28.71,61.41,49.75,103.34,67.6,76.08,32.38,90.65,74.46,71.23,94.69ZM1198.82,3451.73s-12.95-22.67-84.17-50.99c-71.23-28.34-97.12-68.8-213.67-214.48-.38-.46-.74-.92-1.1-1.38-.01-.01-.02-.01-.02-.01-111.51-138.75-169.32-114.8-173.45-112.84,50.93-28.2,106.68-27.34,160.01,10.65,32.8,23.36,73.86,81.23,124.46,135.9,31.8,34.35,67.35,67.43,107,89.91,102.79,58.27,80.94,143.26,80.94,143.26ZM1294.12,3108.56c-72.23,40.67-100.16,88.62-100.16,88.62,0,0-6.88-11.63-18.27-23.16-6.82-6.91-15.27-13.79-24.83-18.11,78.57-81.63,110.89-110.79,234.85-123.92,23.52-2.49,50.33-4.41,81.4-5.99l109.87,40.67s-210.63,1.21-282.87,41.88ZM2352.22,2964.26s-.01,0-.02.01c-623.94,254.68-1089.5-140.33-1089.5-140.33,0,0-160.25-213.06-233.08-600.92-98.34-520.8-137.55-922.56-137.55-922.56,771.12,332.07,1475.95,332.56,1475.95,332.56,0,0-3.31,23.53-8.22,64.91h0c-24.66,207.9-89.6,866.21,22.79,1253.46-10.16,4.46-20.26,8.74-30.34,12.84h-.02ZM3005.3,3343.48c-2.22,52.81,9.72,104.94,23.65,150.12,8.6,27.89,17.96,53.13,25.2,74.23.32.9.62,1.8.92,2.68,8.1,23.78,10.23,49.36,5.31,71.94-6.53,29.88-25.46,54.52-59.33,62.81,23.2-16.71,34.7-39.44,22.82-100.22-3.65-18.72-9.53-41.05-17.97-67.93-.3-.96-.61-1.92-.9-2.86-7.1-22.61-13.1-41.63-18.08-58.25-19.59-65.48-23.31-93.95-15.62-159.23,9.71-82.55-44.31-93.48-44.31-93.48,69.81,4.25,81.95,33.39,78.31,120.19ZM2781.88,3381.33c-5.23-36-28.49-57.88-28.49-57.88,44.31-55.24,112.91,84.98,65.56,128.69-4.36,4.02-8.53,7.3-12.54,9.94-39.49,26.09-61.51-9.94-61.51-9.94,0,0,27.92-6.07,36.42-38.45,2.08-11.73,1.99-22.56.57-32.35ZM2875.39,3387.18c-.92-17.74-4.42-32.41-9.6-44.58-25.74-60.29-92.98-58.61-92.98-58.61,106.23-111.08,160.86-38.24,154.79,47.95-6.07,86.2,20.03,153.58,50.38,250.09,30.35,96.52-20.03,116.55-102.36,103.19-12.32-2-23.86-5.22-34.58-9.63-60.93-24.98-95.74-87.97-100.23-180.37,46.32,27.92,140.04-2.43,134.58-108.05ZM2732.54,3354.61s5.28,13.08,7.41,27.26c1.87,12.46,1.3,25.76-7.41,31.82-110.12-45.83-190.66-119.3-248.21-191.48-63.42-79.52-98.93-157.44-115.36-194.99,30.58-7.68,54.8-20.24,54.8-20.24l27.11-28.32c113.15,259.54,281.66,375.95,281.66,375.95ZM2427.42,2913.51c-53.68-232.41-66.72-536.36-53.87-827.61,6.53-147.91,19.74-292.52,37.68-422.85,0,0,20.49-17.65,51.38-22.5,34.9-5.48,83.09,5.43,129.91,76.73-50.18,157.82-79.31,315.65-92.27,539.84-12.95,224.18-5.67,297.84-5.67,297.84,0,0-68.79,242.81-67.17,358.54ZM2509.36,2774.7c-3.58,10.14-27.72,43.67-28.6,44.88.7-2.82,45.74-183.16,64.42-245.2,149.93,66.16,293.19,94.09,293.19,94.09-1.82,1.82-64.95,52.81-329,106.23ZM2547.61,2533.11c-29.14-159.04,15.78-566.95,15.78-566.95l291.37-74.66c-30.35,300.47,9.71,756.95,9.71,756.95,0,0-83.77,0-316.86-115.33ZM2981.1,1770.59c-2.9,19.35-2.45,41.52,6.59,62.63-265.87,46.13-424.3,95.91-424.3,95.91l7.89-34.6s68.65-30.53,167-72.23c0,0,.04-.01.1-.05,75.37-31.94,168.16-70.45,260.83-106.77-.4.74-13.5,24.33-18.11,55.12ZM3052.81,1728.01c-20.83,50.33-24.92,92.64-19.59,111.28,0,0-44.92,4.86-14.57-82.55.8-2.31,1.59-4.54,2.38-6.73,29.11-80.65,50.14-80.08,61.96-80.08-12.58,19.92-22.52,39.55-30.18,58.08ZM3568.92,2018.36c-4.46.32-8.9.45-13.27.4-66.77-.8-115.73-12.94-193.43-101.98,12.92-9.4,22.42-24.09,28.8-36.74,6.81-13.54,10.05-24.77,10.05-24.77,0,0,54.23,56.65,180.49,88.21,118,29.5,51.12,70.32-12.64,74.87ZM3661.77,1845.33h-.01c-24.95,8.61-57.29,11.95-94.37,5.5-97.73-17-146.9-73.45-146.9-73.45,0,0,3.64-26.71-20.03-32.17,0,5.55-.15,10.99-.44,16.33-.01.01-.01.02,0,.04-2.71,49.37-18.09,89.94-49.88,126.54,0,0-.01,0-.02.01-14.75,17-33.06,33.13-55.27,48.9,15.78,9.71,34.6-1.21,34.6-1.21,0,0,9.71,40.06,34.6,67.38,49.78,72.84,167.54,130.51,87.41,141.43-6.56.9-12.86,1.36-18.93,1.38h-.01c-68.12.44-107.39-52.08-155.88-137.36-10.4-13.84-20.87-25.82-31.27-36.31-5.6-5.63-11.17-10.83-16.71-15.65-67.71-59.03-129.74-61.76-149.91-111.93-7.2-17.92-6.68-41.33-2.29-65.55,10.76-59.48,44.79-123.84,44.79-123.84,12.75-35.21,72.23-52.81,154.18-107.44,81.95-54.63,89.23-137.19,103.19-135.36,9.76,1.27,28.12,6.09,35.79,23.81,3.31,7.64,4.65,17.66,2.45,30.82-17,92.87-104.41,94.69-105.62,152.36-1.21,57.67,21.25,69.81-56.45,95.3,0,0,.01,0,.04.01,54,31.52,92.84-44.93,92.84-44.93,0,0,86.8,50.38,185.14,68.59,98.34,18.21,163.29,5.46,180.28,41.88,10.55,22.61-10.47,50.82-51.31,64.91Z"/>
    <path class="cls-7" d="M1980.98,2492.31v-.02c-3.47-17.48-13.84-36.82-36.75-49.62-46.74-26.1-83.16-34.6-106.83-13.35,26.71,4.86,46.13,16.39,46.13,16.39,0,0-404.67,101.17-480.76-25.09-25.09,29.14,21.04,74.47,103.59,87.41,10.53,121.4,68.8,365.02,219.34,344.79,150.54-20.23,215.28-330.22,215.28-330.22,0,0,9.92,7.04,19.7,9.99,5.77,1.76,11.5,2.09,15.1-1.29,4.95-4.64,8.8-20.8,5.18-38.98ZM1775.07,2772.05c-4.82,4.66-9.8,8.87-14.77,12.53-22.03,16.17-41.79,24.37-58.71,24.37-15.92,0-25.57-7.58-29.91-12.09,2.82-19.58,16.27-90.88,67.6-142.84,33.53-33.98,76.95-53.28,129.25-57.51-11.76,37.83-43.55,127.45-93.44,175.55Z"/>
    <path class="cls-7" d="M2044.18,2270.88s5.35-9.07,11.75-25.98c14.74-38.97,34.96-119.63,7.88-227.15-38.85-154.18-159.65-163.72-220.95-115.55-61.31,48.17-189.18,253.74-4.65,463.37-14.57,16.18-4.46,27.52-4.46,27.52,0,0,71.79-72.19,238.1-68.85.75.01,1.52.02,2.28.05,15.78-31.56-29.95-53.42-29.95-53.42ZM1989.45,2108.2c-14.58,0-26.41-13.72-26.41-30.65s11.82-30.65,26.41-30.65,26.41,13.72,26.41,30.65-11.82,30.65-26.41,30.65ZM1945.71,1988.18c-8.09,0-16.47.52-24.94,1.54-20.44,2.48-39.43,12.91-56.45,31.02-31.81,33.85-53.5,91.98-58.03,155.52-2.89,40.5,1.61,79.46,12.64,113.43-4.58-9.23-9.13-19.49-13.34-30.69-28.29-75.17-28.11-154.21.53-234.9,21.16-48.4,53.96-85.1,90.02-100.74,11.95-5.17,23.78-7.79,35.16-7.79,16,0,30.63,5.16,43.49,15.33,27.67,21.9,44.01,53.7,53.34,79.29-18.91-11.72-45.91-22-82.42-22Z"/>
    <path class="cls-7" d="M1334.79,1803.08c-193.43,17-165.11,323.73-74.87,436.24-21.44-5.26-58.27.4-34.79,49.37,110.82,2.8,179.01,60.59,180.07,61.49-.1-.51-2.88-13.05-24.67-38.02,29.94,9.31,126.66-12.14,135.56-196.67,8.91-184.53-97.12-310.79-181.29-312.41ZM1392.39,1912.74c-35.55.72-69.03,24.74-94.29,67.67-20.12,34.18-33.16,77.67-36.72,122.48-1.64,20.68.35,40.86,4.54,59.89-38.68-90.09-39.64-153.83-12.94-251.38,9.24-33.73,33.01-55.89,65.22-60.8,4.46-.68,9.09-1.02,13.75-1.02,36.51,0,81.27,21.95,111.57,70-12.49-4.03-28.08-6.88-47.23-6.88-1.29,0-2.57.01-3.9.04ZM1452.34,2046.29c-14.63,0-26.5-14.13-26.5-31.56s11.87-31.56,26.5-31.56,26.51,14.13,26.51,31.56-11.87,31.56-26.51,31.56Z"/>
    <path class="cls-7" d="M1413.09,1742.17c-21.72,14.63-137.19-22.67-199.71,5.46-44.52,23.07-61.1,14.97-64.34-3.24-3.24-18.21,72.84-148.31,207.6-127.27,134.76,21.04,94.9,99.15,56.45,125.05Z"/>
    <path class="cls-7" d="M2021.93,1841.11c-22.85-19.92-101.37-30.96-149.33-34.3-47.95-3.34-117.76-6.17-85.59-89.53,21.37-55.38,117.46-49.47,169.66-11.84,52.2,37.64,79.52,90.14,79.82,111.99.3,21.85-2.73,33.99-14.57,23.67Z"/>
  </g>
  <g>
    <text class="cls-28" transform="translate(271.55 4594.65)"><tspan x="0" y="0">Nelsos</tspan></text>
    <text class="cls-29" transform="translate(271.55 4594.65)"><tspan x="0" y="0">Nelsos</tspan></text>
  </g>
</svg>