<?xml version="1.0" encoding="UTF-8"?>
<svg id="Layer_1" data-name="Layer 1" xmlns="http://www.w3.org/2000/svg" version="1.1" viewBox="0 0 32 32">
  <defs>
    <style>
      .cls-1 {
        fill: #fff;
        stroke-width: 0px;
      }
    </style>
  </defs>
  <path class="cls-1" d="M2.3,2.5c-.6,0-1.1.5-1.1,1.1s.5,1.1,1.1,1.1h2.5l3,12c.3,1,1.2,1.7,2.2,1.7h14.3c1,0,1.9-.7,2.2-1.7l3-10.9h-2.4l-2.8,10.3h-14.3l-3-12c-.3-1-1.2-1.7-2.2-1.7h-2.5ZM23,18.6c-1.9,0-3.4,1.6-3.4,3.4s1.6,3.4,3.4,3.4,3.4-1.6,3.4-3.4-1.6-3.4-3.4-3.4ZM12.7,18.6c-1.9,0-3.4,1.6-3.4,3.4s1.6,3.4,3.4,3.4,3.4-1.6,3.4-3.4-1.6-3.4-3.4-3.4ZM16.1,2.5v3.4h-3.4v2.3h3.4v3.4h2.3v-3.4h3.4v-2.3h-3.4v-3.4s-2.3,0-2.3,0ZM12.7,20.9c.6,0,1.1.5,1.1,1.1s-.5,1.1-1.1,1.1-1.1-.5-1.1-1.1.5-1.1,1.1-1.1ZM23,20.9c.6,0,1.1.5,1.1,1.1s-.5,1.1-1.1,1.1-1.1-.5-1.1-1.1.5-1.1,1.1-1.1Z"/>
</svg>