<?xml version="1.0" encoding="UTF-8"?>
<svg id="Layer_1" data-name="Layer 1" xmlns="http://www.w3.org/2000/svg" version="1.1" viewBox="0 0 26 26">
  <defs>
    <style>
      .cls-1 {
        fill: #000;
        stroke-width: 0px;
      }
    </style>
  </defs>
  <path class="cls-1" d="M11.5,0C9.5,0,8,1.6,8,3.6v.5h-4c-.5,0-1,.5-1,1v1h-1v2h2v14.9c0,1.6,1.4,3,3,3h11.9c1.6,0,3-1.4,3-3v-14.9h2v-2h-1v-1c0-.5-.5-1-1-1h-4v-.5c0-2-1.6-3.6-3.5-3.6,0,0-3,0-3,0ZM11.5,2.1h3c.7,0,1.5.6,1.5,1.5v.5h-5.9v-.5c0-.9.6-1.5,1.5-1.5ZM6.1,8.1h13.9v14.9c0,.6-.5,1-1,1H7.1c-.6,0-1-.5-1-1,0,0,0-14.9,0-14.9ZM8,10v11.9h2v-11.9h-2ZM12,10v11.9h2v-11.9h-2ZM16,10v11.9h2v-11.9h-2Z"/>
</svg>