<?xml version="1.0" encoding="UTF-8"?>
<svg id="Layer_1" data-name="Layer 1" xmlns="http://www.w3.org/2000/svg" version="1.1" viewBox="0 0 32 32">
  <defs>
    <style>
      .cls-1 {
        fill: #000;
        stroke-width: 0px;
      }
    </style>
  </defs>
  <path class="cls-1" d="M2.7,3.7v2.2h2.4l2.1,15.7v1h21.1V7.1H8.6l.3,2.2h17.2v11.1H9.3l-2.1-15.7v-1H2.7ZM22.7,22.6c-1.8,0-3.3,1.5-3.3,3.3s1.5,3.3,3.3,3.3,3.3-1.5,3.3-3.3-1.5-3.3-3.3-3.3ZM12.7,22.6c-1.8,0-3.3,1.5-3.3,3.3s1.5,3.3,3.3,3.3,3.3-1.5,3.3-3.3-1.5-3.3-3.3-3.3ZM14.7,11.5c-.6,0-1.1.6-1,1.2s.6,1.1,1.2,1h5.5c.4,0,.8-.2,1-.6.2-.3.2-.8,0-1.1-.2-.3-.6-.6-1-.6h-5.8ZM12.7,24.8c.6,0,1.1.5,1.1,1.1s-.5,1.1-1.1,1.1-1.1-.5-1.1-1.1.5-1.1,1.1-1.1ZM22.7,24.8c.6,0,1.1.5,1.1,1.1s-.5,1.1-1.1,1.1-1.1-.5-1.1-1.1.5-1.1,1.1-1.1Z"/>
</svg>